<svg width="130" height="67" viewBox="0 0 130 67" fill="none" xmlns="http://www.w3.org/2000/svg">
<g filter="url(#filter0_i_83_2143)">
<rect y="0.5" width="130" height="66" rx="33" fill="#4A2CED"/>
<path fill-rule="evenodd" clip-rule="evenodd" d="M60.3125 23.1875L74.375 23.1875C74.6236 23.1875 74.8621 23.2863 75.0379 23.4621C75.2137 23.6379 75.3125 23.8764 75.3125 24.125V38.1875C75.3125 38.7053 74.8928 39.125 74.375 39.125C73.8572 39.125 73.4375 38.7053 73.4375 38.1875V26.3883L56.2879 43.5379C55.9218 43.904 55.3282 43.904 54.9621 43.5379C54.596 43.1718 54.596 42.5782 54.9621 42.2121L72.1117 25.0625L60.3125 25.0625C59.7947 25.0625 59.375 24.6428 59.375 24.125C59.375 23.6072 59.7947 23.1875 60.3125 23.1875Z" fill="white"/>
</g>
<defs>
<filter id="filter0_i_83_2143" x="0" y="0.5" width="134" height="70" filterUnits="userSpaceOnUse" color-interpolation-filters="sRGB">
<feFlood flood-opacity="0" result="BackgroundImageFix"/>
<feBlend mode="normal" in="SourceGraphic" in2="BackgroundImageFix" result="shape"/>
<feColorMatrix in="SourceAlpha" type="matrix" values="0 0 0 0 0 0 0 0 0 0 0 0 0 0 0 0 0 0 127 0" result="hardAlpha"/>
<feOffset dx="4" dy="4"/>
<feGaussianBlur stdDeviation="8.7"/>
<feComposite in2="hardAlpha" operator="arithmetic" k2="-1" k3="1"/>
<feColorMatrix type="matrix" values="0 0 0 0 1 0 0 0 0 1 0 0 0 0 1 0 0 0 0.28 0"/>
<feBlend mode="normal" in2="shape" result="effect1_innerShadow_83_2143"/>
</filter>
</defs>
</svg>
