<svg width="1920" height="80" viewBox="0 0 1920 80" fill="none" xmlns="http://www.w3.org/2000/svg">
<g clip-path="url(#clip0_83_2078)">
<mask id="path-1-inside-1_83_2078" fill="white">
<path d="M0 0H1920V80H0V0Z"/>
</mask>
<path d="M0 0H1920V80H0V0Z" fill="#0E0E10"/>
<g clip-path="url(#clip1_83_2078)">
<mask id="mask0_83_2078" style="mask-type:luminance" maskUnits="userSpaceOnUse" x="20" y="20" width="40" height="40">
<path d="M60 20H20V60H60V20Z" fill="white"/>
</mask>
<g mask="url(#mask0_83_2078)">
<path fill-rule="evenodd" clip-rule="evenodd" d="M57.7882 40C58.5538 40 59.2954 39.8972 60 39.7047C59.4398 39.5865 58.859 39.5244 58.2638 39.5244H48.371C46.737 39.5244 45.2122 39.0562 43.9238 38.2467C44.2054 36.5979 44.9826 35.0173 46.2554 33.7446L52.5782 27.4219C53.1196 26.8805 53.5712 26.2834 53.9334 25.649C53.4536 25.9616 52.999 26.3283 52.5782 26.7493L45.5828 33.7446C44.4274 34.9 43.0182 35.647 41.5348 35.9857C40.568 34.6207 40 32.9534 40 31.1535V22.2119C40 21.4462 39.8972 20.7046 39.7047 20C39.5865 20.5601 39.5244 21.1409 39.5244 21.7362V31.6291C39.5244 33.2631 39.0562 34.7878 38.2467 36.0762C36.5979 35.7945 35.0173 35.0173 33.7446 33.7446L27.4219 27.4219C26.8805 26.8805 26.2834 26.4287 25.649 26.0667C25.9616 26.5463 26.3283 27.0009 26.7493 27.4219L33.7446 34.4172C34.9 35.5726 35.647 36.9818 35.9857 38.4653C34.6207 39.4319 32.9534 40 31.1535 40H22.2119C21.4462 40 20.7046 40.1028 20 40.2954C20.5601 40.4134 21.1409 40.4756 21.7362 40.4756H31.6291C33.2631 40.4756 34.7878 40.9438 36.0762 41.7534C35.7945 43.402 35.0173 44.9826 33.7446 46.2554L27.4219 52.5782C26.8805 53.1196 26.4288 53.7166 26.0667 54.351C26.5463 54.0384 27.0009 53.6716 27.4219 53.2508L34.4172 46.2554C35.5726 45.1 36.9818 44.353 38.4653 44.0142C39.4319 45.3794 40 47.0466 40 48.8466V57.7882C40 58.5538 40.1028 59.2954 40.2954 60C40.4134 59.4398 40.4756 58.859 40.4756 58.2638V48.3708C40.4756 46.7368 40.9438 45.2122 41.7534 43.9238C43.402 44.2054 44.9826 44.9826 46.2554 46.2554L52.5782 52.5782C53.1196 53.1196 53.7166 53.5712 54.351 53.9334C54.0384 53.4536 53.6716 52.999 53.2508 52.5782L46.2554 45.5828C45.1 44.4274 44.353 43.0182 44.0144 41.5348C45.3794 40.568 47.0466 40 48.8466 40H57.7882Z" fill="#AFA1F7"/>
</g>
</g>
<path d="M71.26 46.5V33.54H79.36V34.809H72.583V39.291H78.28V40.56H72.583V45.231H79.36V46.5H71.26ZM84.8196 46.5L80.3556 33.54H81.7326L85.6836 44.997L89.6616 33.54H91.0386L86.5746 46.5H84.8196ZM92.3889 46.5V33.54H100.489V34.809H93.7119V39.291H99.4089V40.56H93.7119V45.231H100.489V46.5H92.3889ZM102.655 46.5V33.54H103.987L111.124 44.16V33.54H112.456V46.5H111.124L103.987 35.871V46.5H102.655ZM118.424 46.5V34.809H113.897V33.54H124.274V34.809H119.747V46.5H118.424ZM128.776 46.5V33.54H133.78C133.906 33.54 134.047 33.546 134.203 33.558C134.365 33.564 134.527 33.582 134.689 33.612C135.367 33.714 135.94 33.951 136.408 34.323C136.882 34.689 137.239 35.151 137.479 35.709C137.725 36.267 137.848 36.885 137.848 37.563C137.848 38.235 137.725 38.85 137.479 39.408C137.233 39.966 136.873 40.431 136.399 40.803C135.931 41.169 135.361 41.403 134.689 41.505C134.527 41.529 134.365 41.547 134.203 41.559C134.047 41.571 133.906 41.577 133.78 41.577H130.099V46.5H128.776ZM130.099 40.317H133.744C133.852 40.317 133.978 40.311 134.122 40.299C134.266 40.287 134.407 40.266 134.545 40.236C134.989 40.14 135.352 39.957 135.634 39.687C135.922 39.417 136.135 39.096 136.273 38.724C136.417 38.352 136.489 37.965 136.489 37.563C136.489 37.161 136.417 36.774 136.273 36.402C136.135 36.024 135.922 35.7 135.634 35.43C135.352 35.16 134.989 34.977 134.545 34.881C134.407 34.851 134.266 34.833 134.122 34.827C133.978 34.815 133.852 34.809 133.744 34.809H130.099V40.317ZM139.639 46.5V33.54H140.962V39.381H148.126V33.54H149.44V46.5H148.126V40.65H140.962V46.5H139.639ZM157.208 46.77C155.918 46.77 154.829 46.485 153.941 45.915C153.053 45.339 152.381 44.544 151.925 43.53C151.469 42.516 151.241 41.346 151.241 40.02C151.241 38.694 151.469 37.524 151.925 36.51C152.381 35.496 153.053 34.704 153.941 34.134C154.829 33.558 155.918 33.27 157.208 33.27C158.504 33.27 159.593 33.558 160.475 34.134C161.363 34.704 162.035 35.496 162.491 36.51C162.953 37.524 163.184 38.694 163.184 40.02C163.184 41.346 162.953 42.516 162.491 43.53C162.035 44.544 161.363 45.339 160.475 45.915C159.593 46.485 158.504 46.77 157.208 46.77ZM157.208 45.501C158.222 45.501 159.068 45.27 159.746 44.808C160.424 44.346 160.931 43.704 161.267 42.882C161.609 42.054 161.78 41.1 161.78 40.02C161.78 38.94 161.609 37.989 161.267 37.167C160.931 36.345 160.424 35.703 159.746 35.241C159.068 34.779 158.222 34.545 157.208 34.539C156.194 34.539 155.351 34.77 154.679 35.232C154.007 35.694 153.5 36.339 153.158 37.167C152.822 37.989 152.651 38.94 152.645 40.02C152.639 41.1 152.804 42.051 153.14 42.873C153.482 43.689 153.992 44.331 154.67 44.799C155.348 45.261 156.194 45.495 157.208 45.501ZM168.082 46.5V34.809H163.555V33.54H173.932V34.809H169.405V46.5H168.082ZM180.622 46.77C179.332 46.77 178.243 46.485 177.355 45.915C176.467 45.339 175.795 44.544 175.339 43.53C174.883 42.516 174.655 41.346 174.655 40.02C174.655 38.694 174.883 37.524 175.339 36.51C175.795 35.496 176.467 34.704 177.355 34.134C178.243 33.558 179.332 33.27 180.622 33.27C181.918 33.27 183.007 33.558 183.889 34.134C184.777 34.704 185.449 35.496 185.905 36.51C186.367 37.524 186.598 38.694 186.598 40.02C186.598 41.346 186.367 42.516 185.905 43.53C185.449 44.544 184.777 45.339 183.889 45.915C183.007 46.485 181.918 46.77 180.622 46.77ZM180.622 45.501C181.636 45.501 182.482 45.27 183.16 44.808C183.838 44.346 184.345 43.704 184.681 42.882C185.023 42.054 185.194 41.1 185.194 40.02C185.194 38.94 185.023 37.989 184.681 37.167C184.345 36.345 183.838 35.703 183.16 35.241C182.482 34.779 181.636 34.545 180.622 34.539C179.608 34.539 178.765 34.77 178.093 35.232C177.421 35.694 176.914 36.339 176.572 37.167C176.236 37.989 176.065 38.94 176.059 40.02C176.053 41.1 176.218 42.051 176.554 42.873C176.896 43.689 177.406 44.331 178.084 44.799C178.762 45.261 179.608 45.495 180.622 45.501ZM193.594 46.77C192.682 46.77 191.86 46.611 191.128 46.293C190.396 45.975 189.772 45.522 189.256 44.934C188.746 44.346 188.356 43.638 188.086 42.81C187.816 41.976 187.681 41.046 187.681 40.02C187.681 38.664 187.915 37.482 188.383 36.474C188.857 35.46 189.535 34.674 190.417 34.116C191.299 33.558 192.358 33.279 193.594 33.279C194.974 33.279 196.096 33.603 196.96 34.251C197.83 34.893 198.436 35.757 198.778 36.843L197.446 37.167C197.164 36.375 196.699 35.742 196.051 35.268C195.409 34.794 194.608 34.557 193.648 34.557C192.634 34.551 191.791 34.779 191.119 35.241C190.447 35.697 189.94 36.339 189.598 37.167C189.262 37.989 189.091 38.94 189.085 40.02C189.079 41.1 189.244 42.051 189.58 42.873C189.922 43.689 190.432 44.331 191.11 44.799C191.788 45.261 192.634 45.495 193.648 45.501C194.578 45.501 195.346 45.321 195.952 44.961C196.558 44.601 197.017 44.085 197.329 43.413C197.647 42.741 197.827 41.946 197.869 41.028H194.881V39.894H199.255C199.273 40.032 199.282 40.179 199.282 40.335C199.288 40.485 199.291 40.593 199.291 40.659C199.291 41.829 199.081 42.876 198.661 43.8C198.241 44.718 197.608 45.444 196.762 45.978C195.922 46.506 194.866 46.77 193.594 46.77ZM201.092 46.5V33.54H206.096C206.222 33.54 206.363 33.546 206.519 33.558C206.681 33.564 206.843 33.582 207.005 33.612C207.683 33.714 208.256 33.951 208.724 34.323C209.198 34.689 209.555 35.151 209.795 35.709C210.041 36.267 210.164 36.885 210.164 37.563C210.164 38.541 209.906 39.39 209.39 40.11C208.874 40.83 208.136 41.283 207.176 41.469L206.717 41.577H202.415V46.5H201.092ZM208.94 46.5L206.384 41.226L207.653 40.74L210.461 46.5H208.94ZM202.415 40.317H206.06C206.168 40.317 206.294 40.311 206.438 40.299C206.582 40.287 206.723 40.266 206.861 40.236C207.305 40.14 207.668 39.957 207.95 39.687C208.238 39.417 208.451 39.096 208.589 38.724C208.733 38.352 208.805 37.965 208.805 37.563C208.805 37.161 208.733 36.774 208.589 36.402C208.451 36.024 208.238 35.7 207.95 35.43C207.668 35.16 207.305 34.977 206.861 34.881C206.723 34.851 206.582 34.833 206.438 34.827C206.294 34.815 206.168 34.809 206.06 34.809H202.415V40.317ZM211.548 46.5L216.012 33.54H217.767L222.231 46.5H220.854L216.615 34.278H217.137L212.925 46.5H211.548ZM213.537 43.359V42.117H220.232V43.359H213.537ZM223.856 46.5V33.54H228.86C228.986 33.54 229.127 33.546 229.283 33.558C229.445 33.564 229.607 33.582 229.769 33.612C230.447 33.714 231.02 33.951 231.488 34.323C231.962 34.689 232.319 35.151 232.559 35.709C232.805 36.267 232.928 36.885 232.928 37.563C232.928 38.235 232.805 38.85 232.559 39.408C232.313 39.966 231.953 40.431 231.479 40.803C231.011 41.169 230.441 41.403 229.769 41.505C229.607 41.529 229.445 41.547 229.283 41.559C229.127 41.571 228.986 41.577 228.86 41.577H225.179V46.5H223.856ZM225.179 40.317H228.824C228.932 40.317 229.058 40.311 229.202 40.299C229.346 40.287 229.487 40.266 229.625 40.236C230.069 40.14 230.432 39.957 230.714 39.687C231.002 39.417 231.215 39.096 231.353 38.724C231.497 38.352 231.569 37.965 231.569 37.563C231.569 37.161 231.497 36.774 231.353 36.402C231.215 36.024 231.002 35.7 230.714 35.43C230.432 35.16 230.069 34.977 229.625 34.881C229.487 34.851 229.346 34.833 229.202 34.827C229.058 34.815 228.932 34.809 228.824 34.809H225.179V40.317ZM234.719 46.5V33.54H236.042V39.381H243.206V33.54H244.52V46.5H243.206V40.65H236.042V46.5H234.719ZM250.128 46.5V41.073L245.781 33.54H247.311L250.794 39.561L254.259 33.54H255.789L251.46 41.073V46.5H250.128Z" fill="#D7D0FB"/>
<g clip-path="url(#clip2_83_2078)">
<mask id="mask1_83_2078" style="mask-type:luminance" maskUnits="userSpaceOnUse" x="276" y="20" width="40" height="40">
<path d="M316 20H276V60H316V20Z" fill="white"/>
</mask>
<g mask="url(#mask1_83_2078)">
<path fill-rule="evenodd" clip-rule="evenodd" d="M313.788 40C314.554 40 315.295 39.8972 316 39.7047C315.44 39.5865 314.859 39.5244 314.264 39.5244H304.371C302.737 39.5244 301.212 39.0562 299.924 38.2467C300.205 36.5979 300.983 35.0173 302.255 33.7446L308.578 27.4219C309.12 26.8805 309.571 26.2834 309.933 25.649C309.454 25.9616 308.999 26.3283 308.578 26.7493L301.583 33.7446C300.427 34.9 299.018 35.647 297.535 35.9857C296.568 34.6207 296 32.9534 296 31.1535V22.2119C296 21.4462 295.897 20.7046 295.705 20C295.587 20.5601 295.524 21.1409 295.524 21.7362V31.6291C295.524 33.2631 295.056 34.7878 294.247 36.0762C292.598 35.7945 291.017 35.0173 289.745 33.7446L283.422 27.4219C282.88 26.8805 282.283 26.4287 281.649 26.0667C281.962 26.5463 282.328 27.0009 282.749 27.4219L289.745 34.4172C290.9 35.5726 291.647 36.9818 291.986 38.4653C290.621 39.4319 288.953 40 287.154 40H278.212C277.446 40 276.705 40.1028 276 40.2954C276.56 40.4134 277.141 40.4756 277.736 40.4756H287.629C289.263 40.4756 290.788 40.9438 292.076 41.7534C291.795 43.402 291.017 44.9826 289.745 46.2554L283.422 52.5782C282.881 53.1196 282.429 53.7166 282.067 54.351C282.546 54.0384 283.001 53.6716 283.422 53.2508L290.417 46.2554C291.573 45.1 292.982 44.353 294.465 44.0142C295.432 45.3794 296 47.0466 296 48.8466V57.7882C296 58.5538 296.103 59.2954 296.295 60C296.413 59.4398 296.476 58.859 296.476 58.2638V48.3708C296.476 46.7368 296.944 45.2122 297.753 43.9238C299.402 44.2054 300.983 44.9826 302.255 46.2554L308.578 52.5782C309.12 53.1196 309.717 53.5712 310.351 53.9334C310.038 53.4536 309.672 52.999 309.251 52.5782L302.255 45.5828C301.1 44.4274 300.353 43.0182 300.014 41.5348C301.379 40.568 303.047 40 304.847 40H313.788Z" fill="#AFA1F7"/>
</g>
</g>
<path d="M332.507 46.77C331.217 46.77 330.128 46.485 329.24 45.915C328.352 45.339 327.68 44.544 327.224 43.53C326.768 42.516 326.54 41.346 326.54 40.02C326.54 38.694 326.768 37.524 327.224 36.51C327.68 35.496 328.352 34.704 329.24 34.134C330.128 33.558 331.217 33.27 332.507 33.27C334.013 33.27 335.243 33.657 336.197 34.431C337.151 35.199 337.805 36.231 338.159 37.527L336.809 37.878C336.533 36.852 336.038 36.039 335.324 35.439C334.61 34.839 333.671 34.539 332.507 34.539C331.493 34.539 330.65 34.77 329.978 35.232C329.306 35.694 328.799 36.339 328.457 37.167C328.121 37.989 327.947 38.94 327.935 40.02C327.929 41.1 328.094 42.051 328.43 42.873C328.772 43.695 329.282 44.34 329.96 44.808C330.644 45.27 331.493 45.501 332.507 45.501C333.671 45.501 334.61 45.201 335.324 44.601C336.038 43.995 336.533 43.182 336.809 42.162L338.159 42.513C337.805 43.809 337.151 44.844 336.197 45.618C335.243 46.386 334.013 46.77 332.507 46.77ZM345.392 46.77C344.102 46.77 343.013 46.485 342.125 45.915C341.237 45.339 340.565 44.544 340.109 43.53C339.653 42.516 339.425 41.346 339.425 40.02C339.425 38.694 339.653 37.524 340.109 36.51C340.565 35.496 341.237 34.704 342.125 34.134C343.013 33.558 344.102 33.27 345.392 33.27C346.688 33.27 347.777 33.558 348.659 34.134C349.547 34.704 350.219 35.496 350.675 36.51C351.137 37.524 351.368 38.694 351.368 40.02C351.368 41.346 351.137 42.516 350.675 43.53C350.219 44.544 349.547 45.339 348.659 45.915C347.777 46.485 346.688 46.77 345.392 46.77ZM345.392 45.501C346.406 45.501 347.252 45.27 347.93 44.808C348.608 44.346 349.115 43.704 349.451 42.882C349.793 42.054 349.964 41.1 349.964 40.02C349.964 38.94 349.793 37.989 349.451 37.167C349.115 36.345 348.608 35.703 347.93 35.241C347.252 34.779 346.406 34.545 345.392 34.539C344.378 34.539 343.535 34.77 342.863 35.232C342.191 35.694 341.684 36.339 341.342 37.167C341.006 37.989 340.835 38.94 340.829 40.02C340.823 41.1 340.988 42.051 341.324 42.873C341.666 43.689 342.176 44.331 342.854 44.799C343.532 45.261 344.378 45.495 345.392 45.501ZM353.17 46.5V33.54H354.385L359.479 44.439L364.546 33.54H365.779V46.491H364.519V36.492L359.902 46.5H359.047L354.439 36.492V46.5H353.17ZM368.305 46.5V33.54H376.405V34.809H369.628V39.291H375.325V40.56H369.628V45.231H376.405V46.5H368.305ZM378.571 46.5V33.54H383.575C383.701 33.54 383.842 33.546 383.998 33.558C384.16 33.564 384.322 33.582 384.484 33.612C385.162 33.714 385.735 33.951 386.203 34.323C386.677 34.689 387.034 35.151 387.274 35.709C387.52 36.267 387.643 36.885 387.643 37.563C387.643 38.541 387.385 39.39 386.869 40.11C386.353 40.83 385.615 41.283 384.655 41.469L384.196 41.577H379.894V46.5H378.571ZM386.419 46.5L383.863 41.226L385.132 40.74L387.94 46.5H386.419ZM379.894 40.317H383.539C383.647 40.317 383.773 40.311 383.917 40.299C384.061 40.287 384.202 40.266 384.34 40.236C384.784 40.14 385.147 39.957 385.429 39.687C385.717 39.417 385.93 39.096 386.068 38.724C386.212 38.352 386.284 37.965 386.284 37.563C386.284 37.161 386.212 36.774 386.068 36.402C385.93 36.024 385.717 35.7 385.429 35.43C385.147 35.16 384.784 34.977 384.34 34.881C384.202 34.851 384.061 34.833 383.917 34.827C383.773 34.815 383.647 34.809 383.539 34.809H379.894V40.317ZM394.997 46.77C393.707 46.77 392.618 46.485 391.73 45.915C390.842 45.339 390.17 44.544 389.714 43.53C389.258 42.516 389.03 41.346 389.03 40.02C389.03 38.694 389.258 37.524 389.714 36.51C390.17 35.496 390.842 34.704 391.73 34.134C392.618 33.558 393.707 33.27 394.997 33.27C396.503 33.27 397.733 33.657 398.687 34.431C399.641 35.199 400.295 36.231 400.649 37.527L399.299 37.878C399.023 36.852 398.528 36.039 397.814 35.439C397.1 34.839 396.161 34.539 394.997 34.539C393.983 34.539 393.14 34.77 392.468 35.232C391.796 35.694 391.289 36.339 390.947 37.167C390.611 37.989 390.437 38.94 390.425 40.02C390.419 41.1 390.584 42.051 390.92 42.873C391.262 43.695 391.772 44.34 392.45 44.808C393.134 45.27 393.983 45.501 394.997 45.501C396.161 45.501 397.1 45.201 397.814 44.601C398.528 43.995 399.023 43.182 399.299 42.162L400.649 42.513C400.295 43.809 399.641 44.844 398.687 45.618C397.733 46.386 396.503 46.77 394.997 46.77ZM402.815 46.5V33.54H404.138V46.5H402.815ZM405.936 46.5L410.4 33.54H412.155L416.619 46.5H415.242L411.003 34.278H411.525L407.313 46.5H405.936ZM407.925 43.359V42.117H414.621V43.359H407.925ZM418.424 46.5V33.54H419.747V45.231H425.903V46.5H418.424ZM430.145 46.5V33.54H435.149C435.275 33.54 435.416 33.546 435.572 33.558C435.734 33.564 435.896 33.582 436.058 33.612C436.736 33.714 437.309 33.951 437.777 34.323C438.251 34.689 438.608 35.151 438.848 35.709C439.094 36.267 439.217 36.885 439.217 37.563C439.217 38.235 439.094 38.85 438.848 39.408C438.602 39.966 438.242 40.431 437.768 40.803C437.3 41.169 436.73 41.403 436.058 41.505C435.896 41.529 435.734 41.547 435.572 41.559C435.416 41.571 435.275 41.577 435.149 41.577H431.468V46.5H430.145ZM431.468 40.317H435.113C435.221 40.317 435.347 40.311 435.491 40.299C435.635 40.287 435.776 40.266 435.914 40.236C436.358 40.14 436.721 39.957 437.003 39.687C437.291 39.417 437.504 39.096 437.642 38.724C437.786 38.352 437.858 37.965 437.858 37.563C437.858 37.161 437.786 36.774 437.642 36.402C437.504 36.024 437.291 35.7 437.003 35.43C436.721 35.16 436.358 34.977 435.914 34.881C435.776 34.851 435.635 34.833 435.491 34.827C435.347 34.815 435.221 34.809 435.113 34.809H431.468V40.317ZM441.008 46.5V33.54H442.331V39.381H449.495V33.54H450.809V46.5H449.495V40.65H442.331V46.5H441.008ZM458.577 46.77C457.287 46.77 456.198 46.485 455.31 45.915C454.422 45.339 453.75 44.544 453.294 43.53C452.838 42.516 452.61 41.346 452.61 40.02C452.61 38.694 452.838 37.524 453.294 36.51C453.75 35.496 454.422 34.704 455.31 34.134C456.198 33.558 457.287 33.27 458.577 33.27C459.873 33.27 460.962 33.558 461.844 34.134C462.732 34.704 463.404 35.496 463.86 36.51C464.322 37.524 464.553 38.694 464.553 40.02C464.553 41.346 464.322 42.516 463.86 43.53C463.404 44.544 462.732 45.339 461.844 45.915C460.962 46.485 459.873 46.77 458.577 46.77ZM458.577 45.501C459.591 45.501 460.437 45.27 461.115 44.808C461.793 44.346 462.3 43.704 462.636 42.882C462.978 42.054 463.149 41.1 463.149 40.02C463.149 38.94 462.978 37.989 462.636 37.167C462.3 36.345 461.793 35.703 461.115 35.241C460.437 34.779 459.591 34.545 458.577 34.539C457.563 34.539 456.72 34.77 456.048 35.232C455.376 35.694 454.869 36.339 454.527 37.167C454.191 37.989 454.02 38.94 454.014 40.02C454.008 41.1 454.173 42.051 454.509 42.873C454.851 43.689 455.361 44.331 456.039 44.799C456.717 45.261 457.563 45.495 458.577 45.501ZM469.451 46.5V34.809H464.924V33.54H475.301V34.809H470.774V46.5H469.451ZM481.991 46.77C480.701 46.77 479.612 46.485 478.724 45.915C477.836 45.339 477.164 44.544 476.708 43.53C476.252 42.516 476.024 41.346 476.024 40.02C476.024 38.694 476.252 37.524 476.708 36.51C477.164 35.496 477.836 34.704 478.724 34.134C479.612 33.558 480.701 33.27 481.991 33.27C483.287 33.27 484.376 33.558 485.258 34.134C486.146 34.704 486.818 35.496 487.274 36.51C487.736 37.524 487.967 38.694 487.967 40.02C487.967 41.346 487.736 42.516 487.274 43.53C486.818 44.544 486.146 45.339 485.258 45.915C484.376 46.485 483.287 46.77 481.991 46.77ZM481.991 45.501C483.005 45.501 483.851 45.27 484.529 44.808C485.207 44.346 485.714 43.704 486.05 42.882C486.392 42.054 486.563 41.1 486.563 40.02C486.563 38.94 486.392 37.989 486.05 37.167C485.714 36.345 485.207 35.703 484.529 35.241C483.851 34.779 483.005 34.545 481.991 34.539C480.977 34.539 480.134 34.77 479.462 35.232C478.79 35.694 478.283 36.339 477.941 37.167C477.605 37.989 477.434 38.94 477.428 40.02C477.422 41.1 477.587 42.051 477.923 42.873C478.265 43.689 478.775 44.331 479.453 44.799C480.131 45.261 480.977 45.495 481.991 45.501ZM494.963 46.77C494.051 46.77 493.229 46.611 492.497 46.293C491.765 45.975 491.141 45.522 490.625 44.934C490.115 44.346 489.725 43.638 489.455 42.81C489.185 41.976 489.05 41.046 489.05 40.02C489.05 38.664 489.284 37.482 489.752 36.474C490.226 35.46 490.904 34.674 491.786 34.116C492.668 33.558 493.727 33.279 494.963 33.279C496.343 33.279 497.465 33.603 498.329 34.251C499.199 34.893 499.805 35.757 500.147 36.843L498.815 37.167C498.533 36.375 498.068 35.742 497.42 35.268C496.778 34.794 495.977 34.557 495.017 34.557C494.003 34.551 493.16 34.779 492.488 35.241C491.816 35.697 491.309 36.339 490.967 37.167C490.631 37.989 490.46 38.94 490.454 40.02C490.448 41.1 490.613 42.051 490.949 42.873C491.291 43.689 491.801 44.331 492.479 44.799C493.157 45.261 494.003 45.495 495.017 45.501C495.947 45.501 496.715 45.321 497.321 44.961C497.927 44.601 498.386 44.085 498.698 43.413C499.016 42.741 499.196 41.946 499.238 41.028H496.25V39.894H500.624C500.642 40.032 500.651 40.179 500.651 40.335C500.657 40.485 500.66 40.593 500.66 40.659C500.66 41.829 500.45 42.876 500.03 43.8C499.61 44.718 498.977 45.444 498.131 45.978C497.291 46.506 496.235 46.77 494.963 46.77ZM502.461 46.5V33.54H507.465C507.591 33.54 507.732 33.546 507.888 33.558C508.05 33.564 508.212 33.582 508.374 33.612C509.052 33.714 509.625 33.951 510.093 34.323C510.567 34.689 510.924 35.151 511.164 35.709C511.41 36.267 511.533 36.885 511.533 37.563C511.533 38.541 511.275 39.39 510.759 40.11C510.243 40.83 509.505 41.283 508.545 41.469L508.086 41.577H503.784V46.5H502.461ZM510.309 46.5L507.753 41.226L509.022 40.74L511.83 46.5H510.309ZM503.784 40.317H507.429C507.537 40.317 507.663 40.311 507.807 40.299C507.951 40.287 508.092 40.266 508.23 40.236C508.674 40.14 509.037 39.957 509.319 39.687C509.607 39.417 509.82 39.096 509.958 38.724C510.102 38.352 510.174 37.965 510.174 37.563C510.174 37.161 510.102 36.774 509.958 36.402C509.82 36.024 509.607 35.7 509.319 35.43C509.037 35.16 508.674 34.977 508.23 34.881C508.092 34.851 507.951 34.833 507.807 34.827C507.663 34.815 507.537 34.809 507.429 34.809H503.784V40.317ZM512.917 46.5L517.381 33.54H519.136L523.6 46.5H522.223L517.984 34.278H518.506L514.294 46.5H512.917ZM514.906 43.359V42.117H521.602V43.359H514.906ZM525.225 46.5V33.54H530.229C530.355 33.54 530.496 33.546 530.652 33.558C530.814 33.564 530.976 33.582 531.138 33.612C531.816 33.714 532.389 33.951 532.857 34.323C533.331 34.689 533.688 35.151 533.928 35.709C534.174 36.267 534.297 36.885 534.297 37.563C534.297 38.235 534.174 38.85 533.928 39.408C533.682 39.966 533.322 40.431 532.848 40.803C532.38 41.169 531.81 41.403 531.138 41.505C530.976 41.529 530.814 41.547 530.652 41.559C530.496 41.571 530.355 41.577 530.229 41.577H526.548V46.5H525.225ZM526.548 40.317H530.193C530.301 40.317 530.427 40.311 530.571 40.299C530.715 40.287 530.856 40.266 530.994 40.236C531.438 40.14 531.801 39.957 532.083 39.687C532.371 39.417 532.584 39.096 532.722 38.724C532.866 38.352 532.938 37.965 532.938 37.563C532.938 37.161 532.866 36.774 532.722 36.402C532.584 36.024 532.371 35.7 532.083 35.43C531.801 35.16 531.438 34.977 530.994 34.881C530.856 34.851 530.715 34.833 530.571 34.827C530.427 34.815 530.301 34.809 530.193 34.809H526.548V40.317ZM536.088 46.5V33.54H537.411V39.381H544.575V33.54H545.889V46.5H544.575V40.65H537.411V46.5H536.088ZM551.497 46.5V41.073L547.15 33.54H548.68L552.163 39.561L555.628 33.54H557.158L552.829 41.073V46.5H551.497Z" fill="#D7D0FB"/>
<g clip-path="url(#clip3_83_2078)">
<mask id="mask2_83_2078" style="mask-type:luminance" maskUnits="userSpaceOnUse" x="578" y="20" width="40" height="40">
<path d="M618 20H578V60H618V20Z" fill="white"/>
</mask>
<g mask="url(#mask2_83_2078)">
<path fill-rule="evenodd" clip-rule="evenodd" d="M615.788 40C616.554 40 617.295 39.8972 618 39.7047C617.44 39.5865 616.859 39.5244 616.264 39.5244H606.371C604.737 39.5244 603.212 39.0562 601.924 38.2467C602.205 36.5979 602.983 35.0173 604.255 33.7446L610.578 27.4219C611.12 26.8805 611.571 26.2834 611.933 25.649C611.454 25.9616 610.999 26.3283 610.578 26.7493L603.583 33.7446C602.427 34.9 601.018 35.647 599.535 35.9857C598.568 34.6207 598 32.9534 598 31.1535V22.2119C598 21.4462 597.897 20.7046 597.705 20C597.587 20.5601 597.524 21.1409 597.524 21.7362V31.6291C597.524 33.2631 597.056 34.7878 596.247 36.0762C594.598 35.7945 593.017 35.0173 591.745 33.7446L585.422 27.4219C584.88 26.8805 584.283 26.4287 583.649 26.0667C583.962 26.5463 584.328 27.0009 584.749 27.4219L591.745 34.4172C592.9 35.5726 593.647 36.9818 593.986 38.4653C592.621 39.4319 590.953 40 589.154 40H580.212C579.446 40 578.705 40.1028 578 40.2954C578.56 40.4134 579.141 40.4756 579.736 40.4756H589.629C591.263 40.4756 592.788 40.9438 594.076 41.7534C593.795 43.402 593.017 44.9826 591.745 46.2554L585.422 52.5782C584.881 53.1196 584.429 53.7166 584.067 54.351C584.546 54.0384 585.001 53.6716 585.422 53.2508L592.417 46.2554C593.573 45.1 594.982 44.353 596.465 44.0142C597.432 45.3794 598 47.0466 598 48.8466V57.7882C598 58.5538 598.103 59.2954 598.295 60C598.413 59.4398 598.476 58.859 598.476 58.2638V48.3708C598.476 46.7368 598.944 45.2122 599.753 43.9238C601.402 44.2054 602.983 44.9826 604.255 46.2554L610.578 52.5782C611.12 53.1196 611.717 53.5712 612.351 53.9334C612.038 53.4536 611.672 52.999 611.251 52.5782L604.255 45.5828C603.1 44.4274 602.353 43.0182 602.014 41.5348C603.379 40.568 605.047 40 606.847 40H615.788Z" fill="#AFA1F7"/>
</g>
</g>
<path d="M629.26 46.5V33.54H634.264C634.39 33.54 634.531 33.546 634.687 33.558C634.849 33.564 635.011 33.582 635.173 33.612C635.851 33.714 636.424 33.951 636.892 34.323C637.366 34.689 637.723 35.151 637.963 35.709C638.209 36.267 638.332 36.885 638.332 37.563C638.332 38.235 638.209 38.85 637.963 39.408C637.717 39.966 637.357 40.431 636.883 40.803C636.415 41.169 635.845 41.403 635.173 41.505C635.011 41.529 634.849 41.547 634.687 41.559C634.531 41.571 634.39 41.577 634.264 41.577H630.583V46.5H629.26ZM630.583 40.317H634.228C634.336 40.317 634.462 40.311 634.606 40.299C634.75 40.287 634.891 40.266 635.029 40.236C635.473 40.14 635.836 39.957 636.118 39.687C636.406 39.417 636.619 39.096 636.757 38.724C636.901 38.352 636.973 37.965 636.973 37.563C636.973 37.161 636.901 36.774 636.757 36.402C636.619 36.024 636.406 35.7 636.118 35.43C635.836 35.16 635.473 34.977 635.029 34.881C634.891 34.851 634.75 34.833 634.606 34.827C634.462 34.815 634.336 34.809 634.228 34.809H630.583V40.317ZM640.123 46.5V33.54H645.127C645.253 33.54 645.394 33.546 645.55 33.558C645.712 33.564 645.874 33.582 646.036 33.612C646.714 33.714 647.287 33.951 647.755 34.323C648.229 34.689 648.586 35.151 648.826 35.709C649.072 36.267 649.195 36.885 649.195 37.563C649.195 38.541 648.937 39.39 648.421 40.11C647.905 40.83 647.167 41.283 646.207 41.469L645.748 41.577H641.446V46.5H640.123ZM647.971 46.5L645.415 41.226L646.684 40.74L649.492 46.5H647.971ZM641.446 40.317H645.091C645.199 40.317 645.325 40.311 645.469 40.299C645.613 40.287 645.754 40.266 645.892 40.236C646.336 40.14 646.699 39.957 646.981 39.687C647.269 39.417 647.482 39.096 647.62 38.724C647.764 38.352 647.836 37.965 647.836 37.563C647.836 37.161 647.764 36.774 647.62 36.402C647.482 36.024 647.269 35.7 646.981 35.43C646.699 35.16 646.336 34.977 645.892 34.881C645.754 34.851 645.613 34.833 645.469 34.827C645.325 34.815 645.199 34.809 645.091 34.809H641.446V40.317ZM656.726 46.77C655.436 46.77 654.347 46.485 653.459 45.915C652.571 45.339 651.899 44.544 651.443 43.53C650.987 42.516 650.759 41.346 650.759 40.02C650.759 38.694 650.987 37.524 651.443 36.51C651.899 35.496 652.571 34.704 653.459 34.134C654.347 33.558 655.436 33.27 656.726 33.27C658.022 33.27 659.111 33.558 659.993 34.134C660.881 34.704 661.553 35.496 662.009 36.51C662.471 37.524 662.702 38.694 662.702 40.02C662.702 41.346 662.471 42.516 662.009 43.53C661.553 44.544 660.881 45.339 659.993 45.915C659.111 46.485 658.022 46.77 656.726 46.77ZM656.726 45.501C657.74 45.501 658.586 45.27 659.264 44.808C659.942 44.346 660.449 43.704 660.785 42.882C661.127 42.054 661.298 41.1 661.298 40.02C661.298 38.94 661.127 37.989 660.785 37.167C660.449 36.345 659.942 35.703 659.264 35.241C658.586 34.779 657.74 34.545 656.726 34.539C655.712 34.539 654.869 34.77 654.197 35.232C653.525 35.694 653.018 36.339 652.676 37.167C652.34 37.989 652.169 38.94 652.163 40.02C652.157 41.1 652.322 42.051 652.658 42.873C653 43.689 653.51 44.331 654.188 44.799C654.866 45.261 655.712 45.495 656.726 45.501ZM664.504 46.5V33.54H668.437C668.575 33.54 668.809 33.543 669.139 33.549C669.475 33.555 669.796 33.579 670.102 33.621C671.086 33.759 671.908 34.125 672.568 34.719C673.228 35.313 673.723 36.069 674.053 36.987C674.383 37.905 674.548 38.916 674.548 40.02C674.548 41.124 674.383 42.135 674.053 43.053C673.723 43.971 673.228 44.727 672.568 45.321C671.908 45.915 671.086 46.281 670.102 46.419C669.802 46.455 669.481 46.479 669.139 46.491C668.797 46.497 668.563 46.5 668.437 46.5H664.504ZM665.872 45.231H668.437C668.683 45.231 668.947 45.225 669.229 45.213C669.517 45.195 669.763 45.165 669.967 45.123C670.723 44.991 671.332 44.685 671.794 44.205C672.262 43.725 672.604 43.125 672.82 42.405C673.036 41.679 673.144 40.884 673.144 40.02C673.144 39.15 673.036 38.352 672.82 37.626C672.604 36.9 672.262 36.3 671.794 35.826C671.326 35.352 670.717 35.049 669.967 34.917C669.763 34.875 669.514 34.848 669.22 34.836C668.932 34.818 668.671 34.809 668.437 34.809H665.872V45.231ZM681.656 46.77C680.666 46.77 679.79 46.566 679.028 46.158C678.272 45.75 677.678 45.174 677.246 44.43C676.814 43.686 676.598 42.816 676.598 41.82V33.549L677.93 33.54V41.649C677.93 42.321 678.044 42.903 678.272 43.395C678.5 43.881 678.797 44.283 679.163 44.601C679.535 44.913 679.94 45.144 680.378 45.294C680.816 45.444 681.242 45.519 681.656 45.519C682.076 45.519 682.505 45.444 682.943 45.294C683.381 45.144 683.783 44.913 684.149 44.601C684.515 44.283 684.812 43.881 685.04 43.395C685.268 42.903 685.382 42.321 685.382 41.649V33.54H686.714V41.82C686.714 42.816 686.498 43.686 686.066 44.43C685.634 45.168 685.037 45.744 684.275 46.158C683.519 46.566 682.646 46.77 681.656 46.77ZM694.484 46.77C693.194 46.77 692.105 46.485 691.217 45.915C690.329 45.339 689.657 44.544 689.201 43.53C688.745 42.516 688.517 41.346 688.517 40.02C688.517 38.694 688.745 37.524 689.201 36.51C689.657 35.496 690.329 34.704 691.217 34.134C692.105 33.558 693.194 33.27 694.484 33.27C695.99 33.27 697.22 33.657 698.174 34.431C699.128 35.199 699.782 36.231 700.136 37.527L698.786 37.878C698.51 36.852 698.015 36.039 697.301 35.439C696.587 34.839 695.648 34.539 694.484 34.539C693.47 34.539 692.627 34.77 691.955 35.232C691.283 35.694 690.776 36.339 690.434 37.167C690.098 37.989 689.924 38.94 689.912 40.02C689.906 41.1 690.071 42.051 690.407 42.873C690.749 43.695 691.259 44.34 691.937 44.808C692.621 45.27 693.47 45.501 694.484 45.501C695.648 45.501 696.587 45.201 697.301 44.601C698.015 43.995 698.51 43.182 698.786 42.162L700.136 42.513C699.782 43.809 699.128 44.844 698.174 45.618C697.22 46.386 695.99 46.77 694.484 46.77ZM705.568 46.5V34.809H701.041V33.54H711.418V34.809H706.891V46.5H705.568ZM715.92 46.5V33.54H720.924C721.05 33.54 721.191 33.546 721.347 33.558C721.509 33.564 721.671 33.582 721.833 33.612C722.511 33.714 723.084 33.951 723.552 34.323C724.026 34.689 724.383 35.151 724.623 35.709C724.869 36.267 724.992 36.885 724.992 37.563C724.992 38.235 724.869 38.85 724.623 39.408C724.377 39.966 724.017 40.431 723.543 40.803C723.075 41.169 722.505 41.403 721.833 41.505C721.671 41.529 721.509 41.547 721.347 41.559C721.191 41.571 721.05 41.577 720.924 41.577H717.243V46.5H715.92ZM717.243 40.317H720.888C720.996 40.317 721.122 40.311 721.266 40.299C721.41 40.287 721.551 40.266 721.689 40.236C722.133 40.14 722.496 39.957 722.778 39.687C723.066 39.417 723.279 39.096 723.417 38.724C723.561 38.352 723.633 37.965 723.633 37.563C723.633 37.161 723.561 36.774 723.417 36.402C723.279 36.024 723.066 35.7 722.778 35.43C722.496 35.16 722.133 34.977 721.689 34.881C721.551 34.851 721.41 34.833 721.266 34.827C721.122 34.815 720.996 34.809 720.888 34.809H717.243V40.317ZM726.783 46.5V33.54H728.106V39.381H735.27V33.54H736.584V46.5H735.27V40.65H728.106V46.5H726.783ZM744.353 46.77C743.063 46.77 741.974 46.485 741.086 45.915C740.198 45.339 739.526 44.544 739.07 43.53C738.614 42.516 738.386 41.346 738.386 40.02C738.386 38.694 738.614 37.524 739.07 36.51C739.526 35.496 740.198 34.704 741.086 34.134C741.974 33.558 743.063 33.27 744.353 33.27C745.649 33.27 746.738 33.558 747.62 34.134C748.508 34.704 749.18 35.496 749.636 36.51C750.098 37.524 750.329 38.694 750.329 40.02C750.329 41.346 750.098 42.516 749.636 43.53C749.18 44.544 748.508 45.339 747.62 45.915C746.738 46.485 745.649 46.77 744.353 46.77ZM744.353 45.501C745.367 45.501 746.213 45.27 746.891 44.808C747.569 44.346 748.076 43.704 748.412 42.882C748.754 42.054 748.925 41.1 748.925 40.02C748.925 38.94 748.754 37.989 748.412 37.167C748.076 36.345 747.569 35.703 746.891 35.241C746.213 34.779 745.367 34.545 744.353 34.539C743.339 34.539 742.496 34.77 741.824 35.232C741.152 35.694 740.645 36.339 740.303 37.167C739.967 37.989 739.796 38.94 739.79 40.02C739.784 41.1 739.949 42.051 740.285 42.873C740.627 43.689 741.137 44.331 741.815 44.799C742.493 45.261 743.339 45.495 744.353 45.501ZM755.227 46.5V34.809H750.7V33.54H761.077V34.809H756.55V46.5H755.227ZM767.767 46.77C766.477 46.77 765.388 46.485 764.5 45.915C763.612 45.339 762.94 44.544 762.484 43.53C762.028 42.516 761.8 41.346 761.8 40.02C761.8 38.694 762.028 37.524 762.484 36.51C762.94 35.496 763.612 34.704 764.5 34.134C765.388 33.558 766.477 33.27 767.767 33.27C769.063 33.27 770.152 33.558 771.034 34.134C771.922 34.704 772.594 35.496 773.05 36.51C773.512 37.524 773.743 38.694 773.743 40.02C773.743 41.346 773.512 42.516 773.05 43.53C772.594 44.544 771.922 45.339 771.034 45.915C770.152 46.485 769.063 46.77 767.767 46.77ZM767.767 45.501C768.781 45.501 769.627 45.27 770.305 44.808C770.983 44.346 771.49 43.704 771.826 42.882C772.168 42.054 772.339 41.1 772.339 40.02C772.339 38.94 772.168 37.989 771.826 37.167C771.49 36.345 770.983 35.703 770.305 35.241C769.627 34.779 768.781 34.545 767.767 34.539C766.753 34.539 765.91 34.77 765.238 35.232C764.566 35.694 764.059 36.339 763.717 37.167C763.381 37.989 763.21 38.94 763.204 40.02C763.198 41.1 763.363 42.051 763.699 42.873C764.041 43.689 764.551 44.331 765.229 44.799C765.907 45.261 766.753 45.495 767.767 45.501ZM780.738 46.77C779.826 46.77 779.004 46.611 778.272 46.293C777.54 45.975 776.916 45.522 776.4 44.934C775.89 44.346 775.5 43.638 775.23 42.81C774.96 41.976 774.825 41.046 774.825 40.02C774.825 38.664 775.059 37.482 775.527 36.474C776.001 35.46 776.679 34.674 777.561 34.116C778.443 33.558 779.502 33.279 780.738 33.279C782.118 33.279 783.24 33.603 784.104 34.251C784.974 34.893 785.58 35.757 785.922 36.843L784.59 37.167C784.308 36.375 783.843 35.742 783.195 35.268C782.553 34.794 781.752 34.557 780.792 34.557C779.778 34.551 778.935 34.779 778.263 35.241C777.591 35.697 777.084 36.339 776.742 37.167C776.406 37.989 776.235 38.94 776.229 40.02C776.223 41.1 776.388 42.051 776.724 42.873C777.066 43.689 777.576 44.331 778.254 44.799C778.932 45.261 779.778 45.495 780.792 45.501C781.722 45.501 782.49 45.321 783.096 44.961C783.702 44.601 784.161 44.085 784.473 43.413C784.791 42.741 784.971 41.946 785.013 41.028H782.025V39.894H786.399C786.417 40.032 786.426 40.179 786.426 40.335C786.432 40.485 786.435 40.593 786.435 40.659C786.435 41.829 786.225 42.876 785.805 43.8C785.385 44.718 784.752 45.444 783.906 45.978C783.066 46.506 782.01 46.77 780.738 46.77ZM788.237 46.5V33.54H793.241C793.367 33.54 793.508 33.546 793.664 33.558C793.826 33.564 793.988 33.582 794.15 33.612C794.828 33.714 795.401 33.951 795.869 34.323C796.343 34.689 796.7 35.151 796.94 35.709C797.186 36.267 797.309 36.885 797.309 37.563C797.309 38.541 797.051 39.39 796.535 40.11C796.019 40.83 795.281 41.283 794.321 41.469L793.862 41.577H789.56V46.5H788.237ZM796.085 46.5L793.529 41.226L794.798 40.74L797.606 46.5H796.085ZM789.56 40.317H793.205C793.313 40.317 793.439 40.311 793.583 40.299C793.727 40.287 793.868 40.266 794.006 40.236C794.45 40.14 794.813 39.957 795.095 39.687C795.383 39.417 795.596 39.096 795.734 38.724C795.878 38.352 795.95 37.965 795.95 37.563C795.95 37.161 795.878 36.774 795.734 36.402C795.596 36.024 795.383 35.7 795.095 35.43C794.813 35.16 794.45 34.977 794.006 34.881C793.868 34.851 793.727 34.833 793.583 34.827C793.439 34.815 793.313 34.809 793.205 34.809H789.56V40.317ZM798.692 46.5L803.156 33.54H804.911L809.375 46.5H807.998L803.759 34.278H804.281L800.069 46.5H798.692ZM800.681 43.359V42.117H807.377V43.359H800.681ZM811 46.5V33.54H816.004C816.13 33.54 816.271 33.546 816.427 33.558C816.589 33.564 816.751 33.582 816.913 33.612C817.591 33.714 818.164 33.951 818.632 34.323C819.106 34.689 819.463 35.151 819.703 35.709C819.949 36.267 820.072 36.885 820.072 37.563C820.072 38.235 819.949 38.85 819.703 39.408C819.457 39.966 819.097 40.431 818.623 40.803C818.155 41.169 817.585 41.403 816.913 41.505C816.751 41.529 816.589 41.547 816.427 41.559C816.271 41.571 816.13 41.577 816.004 41.577H812.323V46.5H811ZM812.323 40.317H815.968C816.076 40.317 816.202 40.311 816.346 40.299C816.49 40.287 816.631 40.266 816.769 40.236C817.213 40.14 817.576 39.957 817.858 39.687C818.146 39.417 818.359 39.096 818.497 38.724C818.641 38.352 818.713 37.965 818.713 37.563C818.713 37.161 818.641 36.774 818.497 36.402C818.359 36.024 818.146 35.7 817.858 35.43C817.576 35.16 817.213 34.977 816.769 34.881C816.631 34.851 816.49 34.833 816.346 34.827C816.202 34.815 816.076 34.809 815.968 34.809H812.323V40.317ZM821.864 46.5V33.54H823.187V39.381H830.351V33.54H831.665V46.5H830.351V40.65H823.187V46.5H821.864ZM837.273 46.5V41.073L832.926 33.54H834.456L837.939 39.561L841.404 33.54H842.934L838.605 41.073V46.5H837.273Z" fill="#D7D0FB"/>
<g clip-path="url(#clip4_83_2078)">
<mask id="mask3_83_2078" style="mask-type:luminance" maskUnits="userSpaceOnUse" x="863" y="20" width="40" height="40">
<path d="M903 20H863V60H903V20Z" fill="white"/>
</mask>
<g mask="url(#mask3_83_2078)">
<path fill-rule="evenodd" clip-rule="evenodd" d="M900.788 40C901.554 40 902.295 39.8972 903 39.7047C902.44 39.5865 901.859 39.5244 901.264 39.5244H891.371C889.737 39.5244 888.212 39.0562 886.924 38.2467C887.205 36.5979 887.983 35.0173 889.255 33.7446L895.578 27.4219C896.12 26.8805 896.571 26.2834 896.933 25.649C896.454 25.9616 895.999 26.3283 895.578 26.7493L888.583 33.7446C887.427 34.9 886.018 35.647 884.535 35.9857C883.568 34.6207 883 32.9534 883 31.1535V22.2119C883 21.4462 882.897 20.7046 882.705 20C882.587 20.5601 882.524 21.1409 882.524 21.7362V31.6291C882.524 33.2631 882.056 34.7878 881.247 36.0762C879.598 35.7945 878.017 35.0173 876.745 33.7446L870.422 27.4219C869.88 26.8805 869.283 26.4287 868.649 26.0667C868.962 26.5463 869.328 27.0009 869.749 27.4219L876.745 34.4172C877.9 35.5726 878.647 36.9818 878.986 38.4653C877.621 39.4319 875.953 40 874.154 40H865.212C864.446 40 863.705 40.1028 863 40.2954C863.56 40.4134 864.141 40.4756 864.736 40.4756H874.629C876.263 40.4756 877.788 40.9438 879.076 41.7534C878.795 43.402 878.017 44.9826 876.745 46.2554L870.422 52.5782C869.881 53.1196 869.429 53.7166 869.067 54.351C869.546 54.0384 870.001 53.6716 870.422 53.2508L877.417 46.2554C878.573 45.1 879.982 44.353 881.465 44.0142C882.432 45.3794 883 47.0466 883 48.8466V57.7882C883 58.5538 883.103 59.2954 883.295 60C883.413 59.4398 883.476 58.859 883.476 58.2638V48.3708C883.476 46.7368 883.944 45.2122 884.753 43.9238C886.402 44.2054 887.983 44.9826 889.255 46.2554L895.578 52.5782C896.12 53.1196 896.717 53.5712 897.351 53.9334C897.038 53.4536 896.672 52.999 896.251 52.5782L889.255 45.5828C888.1 44.4274 887.353 43.0182 887.014 41.5348C888.379 40.568 890.047 40 891.847 40H900.788Z" fill="#AFA1F7"/>
</g>
</g>
<path d="M917.041 46.5L913.297 33.54H914.674L917.707 44.241L920.722 33.549L922.108 33.54L925.141 44.241L928.156 33.54H929.542L925.807 46.5H924.475L921.415 35.871L918.373 46.5H917.041ZM931.1 46.5V33.54H939.2V34.809H932.423V39.291H938.12V40.56H932.423V45.231H939.2V46.5H931.1ZM941.365 46.5V33.54H945.298C945.436 33.54 945.67 33.543 946 33.549C946.336 33.555 946.657 33.579 946.963 33.621C947.947 33.759 948.769 34.125 949.429 34.719C950.089 35.313 950.584 36.069 950.914 36.987C951.244 37.905 951.409 38.916 951.409 40.02C951.409 41.124 951.244 42.135 950.914 43.053C950.584 43.971 950.089 44.727 949.429 45.321C948.769 45.915 947.947 46.281 946.963 46.419C946.663 46.455 946.342 46.479 946 46.491C945.658 46.497 945.424 46.5 945.298 46.5H941.365ZM942.733 45.231H945.298C945.544 45.231 945.808 45.225 946.09 45.213C946.378 45.195 946.624 45.165 946.828 45.123C947.584 44.991 948.193 44.685 948.655 44.205C949.123 43.725 949.465 43.125 949.681 42.405C949.897 41.679 950.005 40.884 950.005 40.02C950.005 39.15 949.897 38.352 949.681 37.626C949.465 36.9 949.123 36.3 948.655 35.826C948.187 35.352 947.578 35.049 946.828 34.917C946.624 34.875 946.375 34.848 946.081 34.836C945.793 34.818 945.532 34.809 945.298 34.809H942.733V45.231ZM953.459 46.5V33.54H957.392C957.53 33.54 957.764 33.543 958.094 33.549C958.43 33.555 958.751 33.579 959.057 33.621C960.041 33.759 960.863 34.125 961.523 34.719C962.183 35.313 962.678 36.069 963.008 36.987C963.338 37.905 963.503 38.916 963.503 40.02C963.503 41.124 963.338 42.135 963.008 43.053C962.678 43.971 962.183 44.727 961.523 45.321C960.863 45.915 960.041 46.281 959.057 46.419C958.757 46.455 958.436 46.479 958.094 46.491C957.752 46.497 957.518 46.5 957.392 46.5H953.459ZM954.827 45.231H957.392C957.638 45.231 957.902 45.225 958.184 45.213C958.472 45.195 958.718 45.165 958.922 45.123C959.678 44.991 960.287 44.685 960.749 44.205C961.217 43.725 961.559 43.125 961.775 42.405C961.991 41.679 962.099 40.884 962.099 40.02C962.099 39.15 961.991 38.352 961.775 37.626C961.559 36.9 961.217 36.3 960.749 35.826C960.281 35.352 959.672 35.049 958.922 34.917C958.718 34.875 958.469 34.848 958.175 34.836C957.887 34.818 957.626 34.809 957.392 34.809H954.827V45.231ZM965.733 46.5V33.54H967.056V46.5H965.733ZM969.754 46.5V33.54H971.086L978.223 44.16V33.54H979.555V46.5H978.223L971.086 35.871V46.5H969.754ZM987.269 46.77C986.357 46.77 985.535 46.611 984.803 46.293C984.071 45.975 983.447 45.522 982.931 44.934C982.421 44.346 982.031 43.638 981.761 42.81C981.491 41.976 981.356 41.046 981.356 40.02C981.356 38.664 981.59 37.482 982.058 36.474C982.532 35.46 983.21 34.674 984.092 34.116C984.974 33.558 986.033 33.279 987.269 33.279C988.649 33.279 989.771 33.603 990.635 34.251C991.505 34.893 992.111 35.757 992.453 36.843L991.121 37.167C990.839 36.375 990.374 35.742 989.726 35.268C989.084 34.794 988.283 34.557 987.323 34.557C986.309 34.551 985.466 34.779 984.794 35.241C984.122 35.697 983.615 36.339 983.273 37.167C982.937 37.989 982.766 38.94 982.76 40.02C982.754 41.1 982.919 42.051 983.255 42.873C983.597 43.689 984.107 44.331 984.785 44.799C985.463 45.261 986.309 45.495 987.323 45.501C988.253 45.501 989.021 45.321 989.627 44.961C990.233 44.601 990.692 44.085 991.004 43.413C991.322 42.741 991.502 41.946 991.544 41.028H988.556V39.894H992.93C992.948 40.032 992.957 40.179 992.957 40.335C992.963 40.485 992.966 40.593 992.966 40.659C992.966 41.829 992.756 42.876 992.336 43.8C991.916 44.718 991.283 45.444 990.437 45.978C989.597 46.506 988.541 46.77 987.269 46.77ZM998.371 46.5V33.54H1003.38C1003.5 33.54 1003.64 33.546 1003.8 33.558C1003.96 33.564 1004.12 33.582 1004.28 33.612C1004.96 33.714 1005.54 33.951 1006 34.323C1006.48 34.689 1006.83 35.151 1007.07 35.709C1007.32 36.267 1007.44 36.885 1007.44 37.563C1007.44 38.235 1007.32 38.85 1007.07 39.408C1006.83 39.966 1006.47 40.431 1005.99 40.803C1005.53 41.169 1004.96 41.403 1004.28 41.505C1004.12 41.529 1003.96 41.547 1003.8 41.559C1003.64 41.571 1003.5 41.577 1003.38 41.577H999.694V46.5H998.371ZM999.694 40.317H1003.34C1003.45 40.317 1003.57 40.311 1003.72 40.299C1003.86 40.287 1004 40.266 1004.14 40.236C1004.58 40.14 1004.95 39.957 1005.23 39.687C1005.52 39.417 1005.73 39.096 1005.87 38.724C1006.01 38.352 1006.08 37.965 1006.08 37.563C1006.08 37.161 1006.01 36.774 1005.87 36.402C1005.73 36.024 1005.52 35.7 1005.23 35.43C1004.95 35.16 1004.58 34.977 1004.14 34.881C1004 34.851 1003.86 34.833 1003.72 34.827C1003.57 34.815 1003.45 34.809 1003.34 34.809H999.694V40.317ZM1009.23 46.5V33.54H1010.56V39.381H1017.72V33.54H1019.04V46.5H1017.72V40.65H1010.56V46.5H1009.23ZM1026.8 46.77C1025.51 46.77 1024.42 46.485 1023.54 45.915C1022.65 45.339 1021.98 44.544 1021.52 43.53C1021.06 42.516 1020.84 41.346 1020.84 40.02C1020.84 38.694 1021.06 37.524 1021.52 36.51C1021.98 35.496 1022.65 34.704 1023.54 34.134C1024.42 33.558 1025.51 33.27 1026.8 33.27C1028.1 33.27 1029.19 33.558 1030.07 34.134C1030.96 34.704 1031.63 35.496 1032.09 36.51C1032.55 37.524 1032.78 38.694 1032.78 40.02C1032.78 41.346 1032.55 42.516 1032.09 43.53C1031.63 44.544 1030.96 45.339 1030.07 45.915C1029.19 46.485 1028.1 46.77 1026.8 46.77ZM1026.8 45.501C1027.82 45.501 1028.66 45.27 1029.34 44.808C1030.02 44.346 1030.53 43.704 1030.86 42.882C1031.2 42.054 1031.38 41.1 1031.38 40.02C1031.38 38.94 1031.2 37.989 1030.86 37.167C1030.53 36.345 1030.02 35.703 1029.34 35.241C1028.66 34.779 1027.82 34.545 1026.8 34.539C1025.79 34.539 1024.95 34.77 1024.27 35.232C1023.6 35.694 1023.1 36.339 1022.75 37.167C1022.42 37.989 1022.25 38.94 1022.24 40.02C1022.23 41.1 1022.4 42.051 1022.74 42.873C1023.08 43.689 1023.59 44.331 1024.27 44.799C1024.94 45.261 1025.79 45.495 1026.8 45.501ZM1037.68 46.5V34.809H1033.15V33.54H1043.53V34.809H1039V46.5H1037.68ZM1050.22 46.77C1048.93 46.77 1047.84 46.485 1046.95 45.915C1046.06 45.339 1045.39 44.544 1044.93 43.53C1044.48 42.516 1044.25 41.346 1044.25 40.02C1044.25 38.694 1044.48 37.524 1044.93 36.51C1045.39 35.496 1046.06 34.704 1046.95 34.134C1047.84 33.558 1048.93 33.27 1050.22 33.27C1051.51 33.27 1052.6 33.558 1053.48 34.134C1054.37 34.704 1055.04 35.496 1055.5 36.51C1055.96 37.524 1056.19 38.694 1056.19 40.02C1056.19 41.346 1055.96 42.516 1055.5 43.53C1055.04 44.544 1054.37 45.339 1053.48 45.915C1052.6 46.485 1051.51 46.77 1050.22 46.77ZM1050.22 45.501C1051.23 45.501 1052.08 45.27 1052.76 44.808C1053.43 44.346 1053.94 43.704 1054.28 42.882C1054.62 42.054 1054.79 41.1 1054.79 40.02C1054.79 38.94 1054.62 37.989 1054.28 37.167C1053.94 36.345 1053.43 35.703 1052.76 35.241C1052.08 34.779 1051.23 34.545 1050.22 34.539C1049.2 34.539 1048.36 34.77 1047.69 35.232C1047.02 35.694 1046.51 36.339 1046.17 37.167C1045.83 37.989 1045.66 38.94 1045.65 40.02C1045.65 41.1 1045.81 42.051 1046.15 42.873C1046.49 43.689 1047 44.331 1047.68 44.799C1048.36 45.261 1049.2 45.495 1050.22 45.501ZM1063.19 46.77C1062.28 46.77 1061.46 46.611 1060.72 46.293C1059.99 45.975 1059.37 45.522 1058.85 44.934C1058.34 44.346 1057.95 43.638 1057.68 42.81C1057.41 41.976 1057.28 41.046 1057.28 40.02C1057.28 38.664 1057.51 37.482 1057.98 36.474C1058.45 35.46 1059.13 34.674 1060.01 34.116C1060.89 33.558 1061.95 33.279 1063.19 33.279C1064.57 33.279 1065.69 33.603 1066.56 34.251C1067.43 34.893 1068.03 35.757 1068.37 36.843L1067.04 37.167C1066.76 36.375 1066.29 35.742 1065.65 35.268C1065 34.794 1064.2 34.557 1063.24 34.557C1062.23 34.551 1061.39 34.779 1060.71 35.241C1060.04 35.697 1059.54 36.339 1059.19 37.167C1058.86 37.989 1058.69 38.94 1058.68 40.02C1058.67 41.1 1058.84 42.051 1059.18 42.873C1059.52 43.689 1060.03 44.331 1060.71 44.799C1061.38 45.261 1062.23 45.495 1063.24 45.501C1064.17 45.501 1064.94 45.321 1065.55 44.961C1066.15 44.601 1066.61 44.085 1066.92 43.413C1067.24 42.741 1067.42 41.946 1067.46 41.028H1064.48V39.894H1068.85C1068.87 40.032 1068.88 40.179 1068.88 40.335C1068.88 40.485 1068.89 40.593 1068.89 40.659C1068.89 41.829 1068.68 42.876 1068.26 43.8C1067.84 44.718 1067.2 45.444 1066.36 45.978C1065.52 46.506 1064.46 46.77 1063.19 46.77ZM1070.69 46.5V33.54H1075.69C1075.82 33.54 1075.96 33.546 1076.11 33.558C1076.28 33.564 1076.44 33.582 1076.6 33.612C1077.28 33.714 1077.85 33.951 1078.32 34.323C1078.79 34.689 1079.15 35.151 1079.39 35.709C1079.64 36.267 1079.76 36.885 1079.76 37.563C1079.76 38.541 1079.5 39.39 1078.99 40.11C1078.47 40.83 1077.73 41.283 1076.77 41.469L1076.31 41.577H1072.01V46.5H1070.69ZM1078.54 46.5L1075.98 41.226L1077.25 40.74L1080.06 46.5H1078.54ZM1072.01 40.317H1075.66C1075.76 40.317 1075.89 40.311 1076.03 40.299C1076.18 40.287 1076.32 40.266 1076.46 40.236C1076.9 40.14 1077.26 39.957 1077.55 39.687C1077.83 39.417 1078.05 39.096 1078.18 38.724C1078.33 38.352 1078.4 37.965 1078.4 37.563C1078.4 37.161 1078.33 36.774 1078.18 36.402C1078.05 36.024 1077.83 35.7 1077.55 35.43C1077.26 35.16 1076.9 34.977 1076.46 34.881C1076.32 34.851 1076.18 34.833 1076.03 34.827C1075.89 34.815 1075.76 34.809 1075.66 34.809H1072.01V40.317ZM1081.14 46.5L1085.61 33.54H1087.36L1091.83 46.5H1090.45L1086.21 34.278H1086.73L1082.52 46.5H1081.14ZM1083.13 43.359V42.117H1089.83V43.359H1083.13ZM1093.45 46.5V33.54H1098.46C1098.58 33.54 1098.72 33.546 1098.88 33.558C1099.04 33.564 1099.2 33.582 1099.36 33.612C1100.04 33.714 1100.62 33.951 1101.08 34.323C1101.56 34.689 1101.91 35.151 1102.15 35.709C1102.4 36.267 1102.52 36.885 1102.52 37.563C1102.52 38.235 1102.4 38.85 1102.15 39.408C1101.91 39.966 1101.55 40.431 1101.07 40.803C1100.61 41.169 1100.04 41.403 1099.36 41.505C1099.2 41.529 1099.04 41.547 1098.88 41.559C1098.72 41.571 1098.58 41.577 1098.46 41.577H1094.77V46.5H1093.45ZM1094.77 40.317H1098.42C1098.53 40.317 1098.65 40.311 1098.8 40.299C1098.94 40.287 1099.08 40.266 1099.22 40.236C1099.66 40.14 1100.03 39.957 1100.31 39.687C1100.6 39.417 1100.81 39.096 1100.95 38.724C1101.09 38.352 1101.16 37.965 1101.16 37.563C1101.16 37.161 1101.09 36.774 1100.95 36.402C1100.81 36.024 1100.6 35.7 1100.31 35.43C1100.03 35.16 1099.66 34.977 1099.22 34.881C1099.08 34.851 1098.94 34.833 1098.8 34.827C1098.65 34.815 1098.53 34.809 1098.42 34.809H1094.77V40.317ZM1104.31 46.5V33.54H1105.64V39.381H1112.8V33.54H1114.12V46.5H1112.8V40.65H1105.64V46.5H1104.31ZM1119.72 46.5V41.073L1115.38 33.54H1116.91L1120.39 39.561L1123.85 33.54H1125.38L1121.06 41.073V46.5H1119.72Z" fill="#D7D0FB"/>
<g clip-path="url(#clip5_83_2078)">
<mask id="mask4_83_2078" style="mask-type:luminance" maskUnits="userSpaceOnUse" x="1146" y="20" width="40" height="40">
<path d="M1186 20H1146V60H1186V20Z" fill="white"/>
</mask>
<g mask="url(#mask4_83_2078)">
<path fill-rule="evenodd" clip-rule="evenodd" d="M1183.79 40C1184.55 40 1185.3 39.8972 1186 39.7047C1185.44 39.5865 1184.86 39.5244 1184.26 39.5244H1174.37C1172.74 39.5244 1171.21 39.0562 1169.92 38.2467C1170.21 36.5979 1170.98 35.0173 1172.26 33.7446L1178.58 27.4219C1179.12 26.8805 1179.57 26.2834 1179.93 25.649C1179.45 25.9616 1179 26.3283 1178.58 26.7493L1171.58 33.7446C1170.43 34.9 1169.02 35.647 1167.53 35.9857C1166.57 34.6207 1166 32.9534 1166 31.1535V22.2119C1166 21.4462 1165.9 20.7046 1165.7 20C1165.59 20.5601 1165.52 21.1409 1165.52 21.7362V31.6291C1165.52 33.2631 1165.06 34.7878 1164.25 36.0762C1162.6 35.7945 1161.02 35.0173 1159.74 33.7446L1153.42 27.4219C1152.88 26.8805 1152.28 26.4287 1151.65 26.0667C1151.96 26.5463 1152.33 27.0009 1152.75 27.4219L1159.74 34.4172C1160.9 35.5726 1161.65 36.9818 1161.99 38.4653C1160.62 39.4319 1158.95 40 1157.15 40H1148.21C1147.45 40 1146.7 40.1028 1146 40.2954C1146.56 40.4134 1147.14 40.4756 1147.74 40.4756H1157.63C1159.26 40.4756 1160.79 40.9438 1162.08 41.7534C1161.79 43.402 1161.02 44.9826 1159.74 46.2554L1153.42 52.5782C1152.88 53.1196 1152.43 53.7166 1152.07 54.351C1152.55 54.0384 1153 53.6716 1153.42 53.2508L1160.42 46.2554C1161.57 45.1 1162.98 44.353 1164.47 44.0142C1165.43 45.3794 1166 47.0466 1166 48.8466V57.7882C1166 58.5538 1166.1 59.2954 1166.3 60C1166.41 59.4398 1166.48 58.859 1166.48 58.2638V48.3708C1166.48 46.7368 1166.94 45.2122 1167.75 43.9238C1169.4 44.2054 1170.98 44.9826 1172.26 46.2554L1178.58 52.5782C1179.12 53.1196 1179.72 53.5712 1180.35 53.9334C1180.04 53.4536 1179.67 52.999 1179.25 52.5782L1172.26 45.5828C1171.1 44.4274 1170.35 43.0182 1170.01 41.5348C1171.38 40.568 1173.05 40 1174.85 40H1183.79Z" fill="#AFA1F7"/>
</g>
</g>
<path d="M1197.44 46.5V33.54H1198.76V45.231H1204.92V46.5H1197.44ZM1205.55 46.5L1210.02 33.54H1211.77L1216.24 46.5H1214.86L1210.62 34.278H1211.14L1206.93 46.5H1205.55ZM1207.54 43.359V42.117H1214.24V43.359H1207.54ZM1217.86 46.5V33.54H1219.19L1226.33 44.16V33.54H1227.66V46.5H1226.33L1219.19 35.871V46.5H1217.86ZM1230.18 46.5V33.54H1234.12C1234.25 33.54 1234.49 33.543 1234.82 33.549C1235.15 33.555 1235.48 33.579 1235.78 33.621C1236.77 33.759 1237.59 34.125 1238.25 34.719C1238.91 35.313 1239.4 36.069 1239.73 36.987C1240.06 37.905 1240.23 38.916 1240.23 40.02C1240.23 41.124 1240.06 42.135 1239.73 43.053C1239.4 43.971 1238.91 44.727 1238.25 45.321C1237.59 45.915 1236.77 46.281 1235.78 46.419C1235.48 46.455 1235.16 46.479 1234.82 46.491C1234.48 46.497 1234.24 46.5 1234.12 46.5H1230.18ZM1231.55 45.231H1234.12C1234.36 45.231 1234.63 45.225 1234.91 45.213C1235.2 45.195 1235.44 45.165 1235.65 45.123C1236.4 44.991 1237.01 44.685 1237.47 44.205C1237.94 43.725 1238.28 43.125 1238.5 42.405C1238.72 41.679 1238.82 40.884 1238.82 40.02C1238.82 39.15 1238.72 38.352 1238.5 37.626C1238.28 36.9 1237.94 36.3 1237.47 35.826C1237.01 35.352 1236.4 35.049 1235.65 34.917C1235.44 34.875 1235.19 34.848 1234.9 34.836C1234.61 34.818 1234.35 34.809 1234.12 34.809H1231.55V45.231ZM1246.78 46.77C1245.87 46.77 1245.06 46.62 1244.33 46.32C1243.61 46.014 1243.01 45.582 1242.54 45.024C1242.07 44.466 1241.76 43.803 1241.62 43.035L1242.97 42.81C1243.19 43.65 1243.64 44.31 1244.34 44.79C1245.03 45.264 1245.87 45.501 1246.83 45.501C1247.47 45.501 1248.04 45.402 1248.54 45.204C1249.05 45 1249.44 44.712 1249.73 44.34C1250.02 43.968 1250.16 43.527 1250.16 43.017C1250.16 42.681 1250.1 42.396 1249.98 42.162C1249.86 41.922 1249.7 41.724 1249.5 41.568C1249.31 41.412 1249.09 41.283 1248.86 41.181C1248.62 41.073 1248.39 40.986 1248.17 40.92L1244.89 39.939C1244.49 39.825 1244.13 39.681 1243.79 39.507C1243.45 39.327 1243.16 39.114 1242.91 38.868C1242.66 38.616 1242.47 38.322 1242.33 37.986C1242.19 37.65 1242.12 37.266 1242.12 36.834C1242.12 36.102 1242.32 35.469 1242.7 34.935C1243.08 34.401 1243.61 33.99 1244.28 33.702C1244.94 33.414 1245.7 33.273 1246.55 33.279C1247.42 33.279 1248.19 33.432 1248.87 33.738C1249.55 34.044 1250.11 34.482 1250.56 35.052C1251 35.616 1251.3 36.285 1251.44 37.059L1250.05 37.311C1249.96 36.747 1249.76 36.258 1249.43 35.844C1249.11 35.43 1248.69 35.112 1248.19 34.89C1247.69 34.662 1247.14 34.545 1246.54 34.539C1245.96 34.539 1245.44 34.638 1244.99 34.836C1244.54 35.028 1244.18 35.292 1243.92 35.628C1243.65 35.964 1243.52 36.348 1243.52 36.78C1243.52 37.218 1243.64 37.569 1243.88 37.833C1244.13 38.097 1244.43 38.304 1244.78 38.454C1245.14 38.604 1245.49 38.727 1245.82 38.823L1248.36 39.57C1248.63 39.642 1248.93 39.747 1249.29 39.885C1249.65 40.017 1250 40.209 1250.33 40.461C1250.67 40.707 1250.96 41.031 1251.18 41.433C1251.4 41.835 1251.51 42.345 1251.51 42.963C1251.51 43.563 1251.39 44.1 1251.15 44.574C1250.92 45.048 1250.58 45.447 1250.15 45.771C1249.73 46.095 1249.23 46.341 1248.65 46.509C1248.08 46.683 1247.46 46.77 1246.78 46.77ZM1258.62 46.77C1257.33 46.77 1256.24 46.485 1255.35 45.915C1254.46 45.339 1253.79 44.544 1253.33 43.53C1252.88 42.516 1252.65 41.346 1252.65 40.02C1252.65 38.694 1252.88 37.524 1253.33 36.51C1253.79 35.496 1254.46 34.704 1255.35 34.134C1256.24 33.558 1257.33 33.27 1258.62 33.27C1260.12 33.27 1261.35 33.657 1262.31 34.431C1263.26 35.199 1263.91 36.231 1264.27 37.527L1262.92 37.878C1262.64 36.852 1262.15 36.039 1261.43 35.439C1260.72 34.839 1259.78 34.539 1258.62 34.539C1257.6 34.539 1256.76 34.77 1256.09 35.232C1255.42 35.694 1254.91 36.339 1254.57 37.167C1254.23 37.989 1254.06 38.94 1254.04 40.02C1254.04 41.1 1254.2 42.051 1254.54 42.873C1254.88 43.695 1255.39 44.34 1256.07 44.808C1256.75 45.27 1257.6 45.501 1258.62 45.501C1259.78 45.501 1260.72 45.201 1261.43 44.601C1262.15 43.995 1262.64 43.182 1262.92 42.162L1264.27 42.513C1263.91 43.809 1263.26 44.844 1262.31 45.618C1261.35 46.386 1260.12 46.77 1258.62 46.77ZM1265 46.5L1269.47 33.54H1271.22L1275.69 46.5H1274.31L1270.07 34.278H1270.59L1266.38 46.5H1265ZM1266.99 43.359V42.117H1273.69V43.359H1266.99ZM1277.31 46.5V33.54H1282.31C1282.44 33.54 1282.58 33.546 1282.74 33.558C1282.9 33.564 1283.06 33.582 1283.22 33.612C1283.9 33.714 1284.47 33.951 1284.94 34.323C1285.42 34.689 1285.77 35.151 1286.01 35.709C1286.26 36.267 1286.38 36.885 1286.38 37.563C1286.38 38.235 1286.26 38.85 1286.01 39.408C1285.77 39.966 1285.41 40.431 1284.93 40.803C1284.47 41.169 1283.9 41.403 1283.22 41.505C1283.06 41.529 1282.9 41.547 1282.74 41.559C1282.58 41.571 1282.44 41.577 1282.31 41.577H1278.63V46.5H1277.31ZM1278.63 40.317H1282.28C1282.39 40.317 1282.51 40.311 1282.66 40.299C1282.8 40.287 1282.94 40.266 1283.08 40.236C1283.52 40.14 1283.89 39.957 1284.17 39.687C1284.46 39.417 1284.67 39.096 1284.81 38.724C1284.95 38.352 1285.02 37.965 1285.02 37.563C1285.02 37.161 1284.95 36.774 1284.81 36.402C1284.67 36.024 1284.46 35.7 1284.17 35.43C1283.89 35.16 1283.52 34.977 1283.08 34.881C1282.94 34.851 1282.8 34.833 1282.66 34.827C1282.51 34.815 1282.39 34.809 1282.28 34.809H1278.63V40.317ZM1288.17 46.5V33.54H1296.27V34.809H1289.5V39.291H1295.19V40.56H1289.5V45.231H1296.27V46.5H1288.17ZM1302.04 46.5V33.54H1307.05C1307.17 33.54 1307.31 33.546 1307.47 33.558C1307.63 33.564 1307.79 33.582 1307.96 33.612C1308.63 33.714 1309.21 33.951 1309.68 34.323C1310.15 34.689 1310.51 35.151 1310.75 35.709C1310.99 36.267 1311.12 36.885 1311.12 37.563C1311.12 38.235 1310.99 38.85 1310.75 39.408C1310.5 39.966 1310.14 40.431 1309.67 40.803C1309.2 41.169 1308.63 41.403 1307.96 41.505C1307.79 41.529 1307.63 41.547 1307.47 41.559C1307.31 41.571 1307.17 41.577 1307.05 41.577H1303.37V46.5H1302.04ZM1303.37 40.317H1307.01C1307.12 40.317 1307.25 40.311 1307.39 40.299C1307.53 40.287 1307.67 40.266 1307.81 40.236C1308.26 40.14 1308.62 39.957 1308.9 39.687C1309.19 39.417 1309.4 39.096 1309.54 38.724C1309.68 38.352 1309.76 37.965 1309.76 37.563C1309.76 37.161 1309.68 36.774 1309.54 36.402C1309.4 36.024 1309.19 35.7 1308.9 35.43C1308.62 35.16 1308.26 34.977 1307.81 34.881C1307.67 34.851 1307.53 34.833 1307.39 34.827C1307.25 34.815 1307.12 34.809 1307.01 34.809H1303.37V40.317ZM1312.91 46.5V33.54H1314.23V39.381H1321.39V33.54H1322.71V46.5H1321.39V40.65H1314.23V46.5H1312.91ZM1330.48 46.77C1329.19 46.77 1328.1 46.485 1327.21 45.915C1326.32 45.339 1325.65 44.544 1325.19 43.53C1324.74 42.516 1324.51 41.346 1324.51 40.02C1324.51 38.694 1324.74 37.524 1325.19 36.51C1325.65 35.496 1326.32 34.704 1327.21 34.134C1328.1 33.558 1329.19 33.27 1330.48 33.27C1331.77 33.27 1332.86 33.558 1333.74 34.134C1334.63 34.704 1335.3 35.496 1335.76 36.51C1336.22 37.524 1336.45 38.694 1336.45 40.02C1336.45 41.346 1336.22 42.516 1335.76 43.53C1335.3 44.544 1334.63 45.339 1333.74 45.915C1332.86 46.485 1331.77 46.77 1330.48 46.77ZM1330.48 45.501C1331.49 45.501 1332.34 45.27 1333.01 44.808C1333.69 44.346 1334.2 43.704 1334.53 42.882C1334.88 42.054 1335.05 41.1 1335.05 40.02C1335.05 38.94 1334.88 37.989 1334.53 37.167C1334.2 36.345 1333.69 35.703 1333.01 35.241C1332.34 34.779 1331.49 34.545 1330.48 34.539C1329.46 34.539 1328.62 34.77 1327.95 35.232C1327.27 35.694 1326.77 36.339 1326.43 37.167C1326.09 37.989 1325.92 38.94 1325.91 40.02C1325.91 41.1 1326.07 42.051 1326.41 42.873C1326.75 43.689 1327.26 44.331 1327.94 44.799C1328.62 45.261 1329.46 45.495 1330.48 45.501ZM1341.35 46.5V34.809H1336.82V33.54H1347.2V34.809H1342.67V46.5H1341.35ZM1353.89 46.77C1352.6 46.77 1351.51 46.485 1350.62 45.915C1349.73 45.339 1349.06 44.544 1348.61 43.53C1348.15 42.516 1347.92 41.346 1347.92 40.02C1347.92 38.694 1348.15 37.524 1348.61 36.51C1349.06 35.496 1349.73 34.704 1350.62 34.134C1351.51 33.558 1352.6 33.27 1353.89 33.27C1355.19 33.27 1356.27 33.558 1357.16 34.134C1358.04 34.704 1358.72 35.496 1359.17 36.51C1359.63 37.524 1359.87 38.694 1359.87 40.02C1359.87 41.346 1359.63 42.516 1359.17 43.53C1358.72 44.544 1358.04 45.339 1357.16 45.915C1356.27 46.485 1355.19 46.77 1353.89 46.77ZM1353.89 45.501C1354.9 45.501 1355.75 45.27 1356.43 44.808C1357.11 44.346 1357.61 43.704 1357.95 42.882C1358.29 42.054 1358.46 41.1 1358.46 40.02C1358.46 38.94 1358.29 37.989 1357.95 37.167C1357.61 36.345 1357.11 35.703 1356.43 35.241C1355.75 34.779 1354.9 34.545 1353.89 34.539C1352.88 34.539 1352.03 34.77 1351.36 35.232C1350.69 35.694 1350.18 36.339 1349.84 37.167C1349.5 37.989 1349.33 38.94 1349.33 40.02C1349.32 41.1 1349.49 42.051 1349.82 42.873C1350.16 43.689 1350.67 44.331 1351.35 44.799C1352.03 45.261 1352.88 45.495 1353.89 45.501ZM1366.86 46.77C1365.95 46.77 1365.13 46.611 1364.4 46.293C1363.66 45.975 1363.04 45.522 1362.52 44.934C1362.01 44.346 1361.62 43.638 1361.35 42.81C1361.08 41.976 1360.95 41.046 1360.95 40.02C1360.95 38.664 1361.18 37.482 1361.65 36.474C1362.12 35.46 1362.8 34.674 1363.68 34.116C1364.57 33.558 1365.63 33.279 1366.86 33.279C1368.24 33.279 1369.36 33.603 1370.23 34.251C1371.1 34.893 1371.7 35.757 1372.05 36.843L1370.71 37.167C1370.43 36.375 1369.97 35.742 1369.32 35.268C1368.68 34.794 1367.88 34.557 1366.92 34.557C1365.9 34.551 1365.06 34.779 1364.39 35.241C1363.71 35.697 1363.21 36.339 1362.87 37.167C1362.53 37.989 1362.36 38.94 1362.35 40.02C1362.35 41.1 1362.51 42.051 1362.85 42.873C1363.19 43.689 1363.7 44.331 1364.38 44.799C1365.06 45.261 1365.9 45.495 1366.92 45.501C1367.85 45.501 1368.61 45.321 1369.22 44.961C1369.83 44.601 1370.28 44.085 1370.6 43.413C1370.91 42.741 1371.09 41.946 1371.14 41.028H1368.15V39.894H1372.52C1372.54 40.032 1372.55 40.179 1372.55 40.335C1372.56 40.485 1372.56 40.593 1372.56 40.659C1372.56 41.829 1372.35 42.876 1371.93 43.8C1371.51 44.718 1370.88 45.444 1370.03 45.978C1369.19 46.506 1368.13 46.77 1366.86 46.77ZM1374.36 46.5V33.54H1379.36C1379.49 33.54 1379.63 33.546 1379.79 33.558C1379.95 33.564 1380.11 33.582 1380.27 33.612C1380.95 33.714 1381.52 33.951 1381.99 34.323C1382.47 34.689 1382.82 35.151 1383.06 35.709C1383.31 36.267 1383.43 36.885 1383.43 37.563C1383.43 38.541 1383.17 39.39 1382.66 40.11C1382.14 40.83 1381.4 41.283 1380.44 41.469L1379.98 41.577H1375.68V46.5H1374.36ZM1382.21 46.5L1379.65 41.226L1380.92 40.74L1383.73 46.5H1382.21ZM1375.68 40.317H1379.33C1379.44 40.317 1379.56 40.311 1379.71 40.299C1379.85 40.287 1379.99 40.266 1380.13 40.236C1380.57 40.14 1380.94 39.957 1381.22 39.687C1381.51 39.417 1381.72 39.096 1381.86 38.724C1382 38.352 1382.07 37.965 1382.07 37.563C1382.07 37.161 1382 36.774 1381.86 36.402C1381.72 36.024 1381.51 35.7 1381.22 35.43C1380.94 35.16 1380.57 34.977 1380.13 34.881C1379.99 34.851 1379.85 34.833 1379.71 34.827C1379.56 34.815 1379.44 34.809 1379.33 34.809H1375.68V40.317ZM1384.82 46.5L1389.28 33.54H1391.03L1395.5 46.5H1394.12L1389.88 34.278H1390.4L1386.19 46.5H1384.82ZM1386.8 43.359V42.117H1393.5V43.359H1386.8ZM1397.12 46.5V33.54H1402.13C1402.25 33.54 1402.39 33.546 1402.55 33.558C1402.71 33.564 1402.87 33.582 1403.04 33.612C1403.71 33.714 1404.29 33.951 1404.76 34.323C1405.23 34.689 1405.59 35.151 1405.83 35.709C1406.07 36.267 1406.2 36.885 1406.2 37.563C1406.2 38.235 1406.07 38.85 1405.83 39.408C1405.58 39.966 1405.22 40.431 1404.75 40.803C1404.28 41.169 1403.71 41.403 1403.04 41.505C1402.87 41.529 1402.71 41.547 1402.55 41.559C1402.39 41.571 1402.25 41.577 1402.13 41.577H1398.45V46.5H1397.12ZM1398.45 40.317H1402.09C1402.2 40.317 1402.33 40.311 1402.47 40.299C1402.61 40.287 1402.75 40.266 1402.89 40.236C1403.34 40.14 1403.7 39.957 1403.98 39.687C1404.27 39.417 1404.48 39.096 1404.62 38.724C1404.76 38.352 1404.84 37.965 1404.84 37.563C1404.84 37.161 1404.76 36.774 1404.62 36.402C1404.48 36.024 1404.27 35.7 1403.98 35.43C1403.7 35.16 1403.34 34.977 1402.89 34.881C1402.75 34.851 1402.61 34.833 1402.47 34.827C1402.33 34.815 1402.2 34.809 1402.09 34.809H1398.45V40.317ZM1407.99 46.5V33.54H1409.31V39.381H1416.47V33.54H1417.79V46.5H1416.47V40.65H1409.31V46.5H1407.99ZM1423.4 46.5V41.073L1419.05 33.54H1420.58L1424.06 39.561L1427.53 33.54H1429.06L1424.73 41.073V46.5H1423.4Z" fill="#D7D0FB"/>
<g clip-path="url(#clip6_83_2078)">
<mask id="mask5_83_2078" style="mask-type:luminance" maskUnits="userSpaceOnUse" x="1450" y="20" width="40" height="40">
<path d="M1490 20H1450V60H1490V20Z" fill="white"/>
</mask>
<g mask="url(#mask5_83_2078)">
<path fill-rule="evenodd" clip-rule="evenodd" d="M1487.79 40C1488.55 40 1489.3 39.8972 1490 39.7047C1489.44 39.5865 1488.86 39.5244 1488.26 39.5244H1478.37C1476.74 39.5244 1475.21 39.0562 1473.92 38.2467C1474.21 36.5979 1474.98 35.0173 1476.26 33.7446L1482.58 27.4219C1483.12 26.8805 1483.57 26.2834 1483.93 25.649C1483.45 25.9616 1483 26.3283 1482.58 26.7493L1475.58 33.7446C1474.43 34.9 1473.02 35.647 1471.53 35.9857C1470.57 34.6207 1470 32.9534 1470 31.1535V22.2119C1470 21.4462 1469.9 20.7046 1469.7 20C1469.59 20.5601 1469.52 21.1409 1469.52 21.7362V31.6291C1469.52 33.2631 1469.06 34.7878 1468.25 36.0762C1466.6 35.7945 1465.02 35.0173 1463.74 33.7446L1457.42 27.4219C1456.88 26.8805 1456.28 26.4287 1455.65 26.0667C1455.96 26.5463 1456.33 27.0009 1456.75 27.4219L1463.74 34.4172C1464.9 35.5726 1465.65 36.9818 1465.99 38.4653C1464.62 39.4319 1462.95 40 1461.15 40H1452.21C1451.45 40 1450.7 40.1028 1450 40.2954C1450.56 40.4134 1451.14 40.4756 1451.74 40.4756H1461.63C1463.26 40.4756 1464.79 40.9438 1466.08 41.7534C1465.79 43.402 1465.02 44.9826 1463.74 46.2554L1457.42 52.5782C1456.88 53.1196 1456.43 53.7166 1456.07 54.351C1456.55 54.0384 1457 53.6716 1457.42 53.2508L1464.42 46.2554C1465.57 45.1 1466.98 44.353 1468.47 44.0142C1469.43 45.3794 1470 47.0466 1470 48.8466V57.7882C1470 58.5538 1470.1 59.2954 1470.3 60C1470.41 59.4398 1470.48 58.859 1470.48 58.2638V48.3708C1470.48 46.7368 1470.94 45.2122 1471.75 43.9238C1473.4 44.2054 1474.98 44.9826 1476.26 46.2554L1482.58 52.5782C1483.12 53.1196 1483.72 53.5712 1484.35 53.9334C1484.04 53.4536 1483.67 52.999 1483.25 52.5782L1476.26 45.5828C1475.1 44.4274 1474.35 43.0182 1474.01 41.5348C1475.38 40.568 1477.05 40 1478.85 40H1487.79Z" fill="#AFA1F7"/>
</g>
</g>
<path d="M1501.26 46.5V33.54H1506.26C1506.99 33.54 1507.62 33.69 1508.16 33.99C1508.7 34.29 1509.12 34.695 1509.42 35.205C1509.72 35.709 1509.87 36.267 1509.87 36.879C1509.87 37.575 1509.69 38.196 1509.32 38.742C1508.94 39.282 1508.45 39.657 1507.82 39.867L1507.8 39.426C1508.64 39.666 1509.3 40.086 1509.78 40.686C1510.26 41.286 1510.5 42.012 1510.5 42.864C1510.5 43.614 1510.34 44.262 1510.03 44.808C1509.71 45.348 1509.26 45.765 1508.69 46.059C1508.11 46.353 1507.44 46.5 1506.68 46.5H1501.26ZM1502.59 45.231H1506.35C1506.88 45.231 1507.36 45.138 1507.78 44.952C1508.2 44.76 1508.53 44.49 1508.77 44.142C1509.01 43.794 1509.14 43.374 1509.14 42.882C1509.14 42.402 1509.02 41.97 1508.8 41.586C1508.58 41.202 1508.28 40.896 1507.89 40.668C1507.52 40.434 1507.08 40.317 1506.6 40.317H1502.59V45.231ZM1502.59 39.066H1506.26C1506.67 39.066 1507.05 38.973 1507.39 38.787C1507.73 38.595 1508 38.334 1508.2 38.004C1508.4 37.674 1508.51 37.293 1508.51 36.861C1508.51 36.249 1508.29 35.751 1507.87 35.367C1507.45 34.983 1506.91 34.791 1506.26 34.791H1502.59V39.066ZM1512.3 46.5V33.54H1517.3C1517.43 33.54 1517.57 33.546 1517.73 33.558C1517.89 33.564 1518.05 33.582 1518.21 33.612C1518.89 33.714 1519.46 33.951 1519.93 34.323C1520.41 34.689 1520.76 35.151 1521 35.709C1521.25 36.267 1521.37 36.885 1521.37 37.563C1521.37 38.541 1521.11 39.39 1520.6 40.11C1520.08 40.83 1519.34 41.283 1518.38 41.469L1517.92 41.577H1513.62V46.5H1512.3ZM1520.15 46.5L1517.59 41.226L1518.86 40.74L1521.67 46.5H1520.15ZM1513.62 40.317H1517.27C1517.38 40.317 1517.5 40.311 1517.65 40.299C1517.79 40.287 1517.93 40.266 1518.07 40.236C1518.51 40.14 1518.88 39.957 1519.16 39.687C1519.45 39.417 1519.66 39.096 1519.8 38.724C1519.94 38.352 1520.01 37.965 1520.01 37.563C1520.01 37.161 1519.94 36.774 1519.8 36.402C1519.66 36.024 1519.45 35.7 1519.16 35.43C1518.88 35.16 1518.51 34.977 1518.07 34.881C1517.93 34.851 1517.79 34.833 1517.65 34.827C1517.5 34.815 1517.38 34.809 1517.27 34.809H1513.62V40.317ZM1522.75 46.5L1527.22 33.54H1528.97L1533.44 46.5H1532.06L1527.82 34.278H1528.34L1524.13 46.5H1522.75ZM1524.74 43.359V42.117H1531.44V43.359H1524.74ZM1535.06 46.5V33.54H1536.39L1543.53 44.16V33.54H1544.86V46.5H1543.53L1536.39 35.871V46.5H1535.06ZM1547.39 46.5V33.54H1551.32C1551.46 33.54 1551.69 33.543 1552.02 33.549C1552.36 33.555 1552.68 33.579 1552.98 33.621C1553.97 33.759 1554.79 34.125 1555.45 34.719C1556.11 35.313 1556.6 36.069 1556.93 36.987C1557.26 37.905 1557.43 38.916 1557.43 40.02C1557.43 41.124 1557.26 42.135 1556.93 43.053C1556.6 43.971 1556.11 44.727 1555.45 45.321C1554.79 45.915 1553.97 46.281 1552.98 46.419C1552.68 46.455 1552.36 46.479 1552.02 46.491C1551.68 46.497 1551.44 46.5 1551.32 46.5H1547.39ZM1548.75 45.231H1551.32C1551.56 45.231 1551.83 45.225 1552.11 45.213C1552.4 45.195 1552.64 45.165 1552.85 45.123C1553.6 44.991 1554.21 44.685 1554.68 44.205C1555.14 43.725 1555.49 43.125 1555.7 42.405C1555.92 41.679 1556.03 40.884 1556.03 40.02C1556.03 39.15 1555.92 38.352 1555.7 37.626C1555.49 36.9 1555.14 36.3 1554.68 35.826C1554.21 35.352 1553.6 35.049 1552.85 34.917C1552.64 34.875 1552.4 34.848 1552.1 34.836C1551.81 34.818 1551.55 34.809 1551.32 34.809H1548.75V45.231ZM1559.66 46.5V33.54H1560.98V46.5H1559.66ZM1563.68 46.5V33.54H1565.01L1572.15 44.16V33.54H1573.48V46.5H1572.15L1565.01 35.871V46.5H1563.68ZM1581.2 46.77C1580.28 46.77 1579.46 46.611 1578.73 46.293C1578 45.975 1577.37 45.522 1576.86 44.934C1576.35 44.346 1575.96 43.638 1575.69 42.81C1575.42 41.976 1575.28 41.046 1575.28 40.02C1575.28 38.664 1575.52 37.482 1575.98 36.474C1576.46 35.46 1577.14 34.674 1578.02 34.116C1578.9 33.558 1579.96 33.279 1581.2 33.279C1582.58 33.279 1583.7 33.603 1584.56 34.251C1585.43 34.893 1586.04 35.757 1586.38 36.843L1585.05 37.167C1584.77 36.375 1584.3 35.742 1583.65 35.268C1583.01 34.794 1582.21 34.557 1581.25 34.557C1580.24 34.551 1579.39 34.779 1578.72 35.241C1578.05 35.697 1577.54 36.339 1577.2 37.167C1576.86 37.989 1576.69 38.94 1576.69 40.02C1576.68 41.1 1576.85 42.051 1577.18 42.873C1577.52 43.689 1578.03 44.331 1578.71 44.799C1579.39 45.261 1580.24 45.495 1581.25 45.501C1582.18 45.501 1582.95 45.321 1583.55 44.961C1584.16 44.601 1584.62 44.085 1584.93 43.413C1585.25 42.741 1585.43 41.946 1585.47 41.028H1582.48V39.894H1586.86C1586.87 40.032 1586.88 40.179 1586.88 40.335C1586.89 40.485 1586.89 40.593 1586.89 40.659C1586.89 41.829 1586.68 42.876 1586.26 43.8C1585.84 44.718 1585.21 45.444 1584.36 45.978C1583.52 46.506 1582.47 46.77 1581.2 46.77ZM1592.3 46.5V33.54H1597.3C1597.43 33.54 1597.57 33.546 1597.72 33.558C1597.89 33.564 1598.05 33.582 1598.21 33.612C1598.89 33.714 1599.46 33.951 1599.93 34.323C1600.4 34.689 1600.76 35.151 1601 35.709C1601.25 36.267 1601.37 36.885 1601.37 37.563C1601.37 38.235 1601.25 38.85 1601 39.408C1600.75 39.966 1600.39 40.431 1599.92 40.803C1599.45 41.169 1598.88 41.403 1598.21 41.505C1598.05 41.529 1597.89 41.547 1597.72 41.559C1597.57 41.571 1597.43 41.577 1597.3 41.577H1593.62V46.5H1592.3ZM1593.62 40.317H1597.27C1597.37 40.317 1597.5 40.311 1597.64 40.299C1597.79 40.287 1597.93 40.266 1598.07 40.236C1598.51 40.14 1598.87 39.957 1599.16 39.687C1599.44 39.417 1599.66 39.096 1599.79 38.724C1599.94 38.352 1600.01 37.965 1600.01 37.563C1600.01 37.161 1599.94 36.774 1599.79 36.402C1599.66 36.024 1599.44 35.7 1599.16 35.43C1598.87 35.16 1598.51 34.977 1598.07 34.881C1597.93 34.851 1597.79 34.833 1597.64 34.827C1597.5 34.815 1597.37 34.809 1597.27 34.809H1593.62V40.317ZM1603.16 46.5V33.54H1604.48V39.381H1611.65V33.54H1612.96V46.5H1611.65V40.65H1604.48V46.5H1603.16ZM1620.73 46.77C1619.44 46.77 1618.35 46.485 1617.46 45.915C1616.57 45.339 1615.9 44.544 1615.45 43.53C1614.99 42.516 1614.76 41.346 1614.76 40.02C1614.76 38.694 1614.99 37.524 1615.45 36.51C1615.9 35.496 1616.57 34.704 1617.46 34.134C1618.35 33.558 1619.44 33.27 1620.73 33.27C1622.03 33.27 1623.11 33.558 1624 34.134C1624.88 34.704 1625.56 35.496 1626.01 36.51C1626.47 37.524 1626.71 38.694 1626.71 40.02C1626.71 41.346 1626.47 42.516 1626.01 43.53C1625.56 44.544 1624.88 45.339 1624 45.915C1623.11 46.485 1622.03 46.77 1620.73 46.77ZM1620.73 45.501C1621.74 45.501 1622.59 45.27 1623.27 44.808C1623.95 44.346 1624.45 43.704 1624.79 42.882C1625.13 42.054 1625.3 41.1 1625.3 40.02C1625.3 38.94 1625.13 37.989 1624.79 37.167C1624.45 36.345 1623.95 35.703 1623.27 35.241C1622.59 34.779 1621.74 34.545 1620.73 34.539C1619.72 34.539 1618.87 34.77 1618.2 35.232C1617.53 35.694 1617.02 36.339 1616.68 37.167C1616.34 37.989 1616.17 38.94 1616.17 40.02C1616.16 41.1 1616.33 42.051 1616.66 42.873C1617 43.689 1617.51 44.331 1618.19 44.799C1618.87 45.261 1619.72 45.495 1620.73 45.501ZM1631.6 46.5V34.809H1627.08V33.54H1637.45V34.809H1632.93V46.5H1631.6ZM1644.14 46.77C1642.85 46.77 1641.76 46.485 1640.88 45.915C1639.99 45.339 1639.32 44.544 1638.86 43.53C1638.4 42.516 1638.18 41.346 1638.18 40.02C1638.18 38.694 1638.4 37.524 1638.86 36.51C1639.32 35.496 1639.99 34.704 1640.88 34.134C1641.76 33.558 1642.85 33.27 1644.14 33.27C1645.44 33.27 1646.53 33.558 1647.41 34.134C1648.3 34.704 1648.97 35.496 1649.43 36.51C1649.89 37.524 1650.12 38.694 1650.12 40.02C1650.12 41.346 1649.89 42.516 1649.43 43.53C1648.97 44.544 1648.3 45.339 1647.41 45.915C1646.53 46.485 1645.44 46.77 1644.14 46.77ZM1644.14 45.501C1645.16 45.501 1646 45.27 1646.68 44.808C1647.36 44.346 1647.87 43.704 1648.2 42.882C1648.54 42.054 1648.72 41.1 1648.72 40.02C1648.72 38.94 1648.54 37.989 1648.2 37.167C1647.87 36.345 1647.36 35.703 1646.68 35.241C1646 34.779 1645.16 34.545 1644.14 34.539C1643.13 34.539 1642.29 34.77 1641.61 35.232C1640.94 35.694 1640.44 36.339 1640.09 37.167C1639.76 37.989 1639.59 38.94 1639.58 40.02C1639.57 41.1 1639.74 42.051 1640.08 42.873C1640.42 43.689 1640.93 44.331 1641.61 44.799C1642.28 45.261 1643.13 45.495 1644.14 45.501ZM1657.12 46.77C1656.2 46.77 1655.38 46.611 1654.65 46.293C1653.92 45.975 1653.29 45.522 1652.78 44.934C1652.27 44.346 1651.88 43.638 1651.61 42.81C1651.34 41.976 1651.2 41.046 1651.2 40.02C1651.2 38.664 1651.44 37.482 1651.9 36.474C1652.38 35.46 1653.06 34.674 1653.94 34.116C1654.82 33.558 1655.88 33.279 1657.12 33.279C1658.5 33.279 1659.62 33.603 1660.48 34.251C1661.35 34.893 1661.96 35.757 1662.3 36.843L1660.97 37.167C1660.69 36.375 1660.22 35.742 1659.57 35.268C1658.93 34.794 1658.13 34.557 1657.17 34.557C1656.16 34.551 1655.31 34.779 1654.64 35.241C1653.97 35.697 1653.46 36.339 1653.12 37.167C1652.78 37.989 1652.61 38.94 1652.61 40.02C1652.6 41.1 1652.77 42.051 1653.1 42.873C1653.44 43.689 1653.95 44.331 1654.63 44.799C1655.31 45.261 1656.16 45.495 1657.17 45.501C1658.1 45.501 1658.87 45.321 1659.47 44.961C1660.08 44.601 1660.54 44.085 1660.85 43.413C1661.17 42.741 1661.35 41.946 1661.39 41.028H1658.4V39.894H1662.78C1662.79 40.032 1662.8 40.179 1662.8 40.335C1662.81 40.485 1662.81 40.593 1662.81 40.659C1662.81 41.829 1662.6 42.876 1662.18 43.8C1661.76 44.718 1661.13 45.444 1660.28 45.978C1659.44 46.506 1658.39 46.77 1657.12 46.77ZM1664.61 46.5V33.54H1669.62C1669.74 33.54 1669.88 33.546 1670.04 33.558C1670.2 33.564 1670.36 33.582 1670.53 33.612C1671.2 33.714 1671.78 33.951 1672.25 34.323C1672.72 34.689 1673.08 35.151 1673.32 35.709C1673.56 36.267 1673.69 36.885 1673.69 37.563C1673.69 38.541 1673.43 39.39 1672.91 40.11C1672.4 40.83 1671.66 41.283 1670.7 41.469L1670.24 41.577H1665.94V46.5H1664.61ZM1672.46 46.5L1669.91 41.226L1671.17 40.74L1673.98 46.5H1672.46ZM1665.94 40.317H1669.58C1669.69 40.317 1669.82 40.311 1669.96 40.299C1670.1 40.287 1670.24 40.266 1670.38 40.236C1670.83 40.14 1671.19 39.957 1671.47 39.687C1671.76 39.417 1671.97 39.096 1672.11 38.724C1672.25 38.352 1672.33 37.965 1672.33 37.563C1672.33 37.161 1672.25 36.774 1672.11 36.402C1671.97 36.024 1671.76 35.7 1671.47 35.43C1671.19 35.16 1670.83 34.977 1670.38 34.881C1670.24 34.851 1670.1 34.833 1669.96 34.827C1669.82 34.815 1669.69 34.809 1669.58 34.809H1665.94V40.317ZM1675.07 46.5L1679.53 33.54H1681.29L1685.75 46.5H1684.37L1680.14 34.278H1680.66L1676.45 46.5H1675.07ZM1677.06 43.359V42.117H1683.75V43.359H1677.06ZM1687.38 46.5V33.54H1692.38C1692.51 33.54 1692.65 33.546 1692.8 33.558C1692.97 33.564 1693.13 33.582 1693.29 33.612C1693.97 33.714 1694.54 33.951 1695.01 34.323C1695.48 34.689 1695.84 35.151 1696.08 35.709C1696.33 36.267 1696.45 36.885 1696.45 37.563C1696.45 38.235 1696.33 38.85 1696.08 39.408C1695.83 39.966 1695.47 40.431 1695 40.803C1694.53 41.169 1693.96 41.403 1693.29 41.505C1693.13 41.529 1692.97 41.547 1692.8 41.559C1692.65 41.571 1692.51 41.577 1692.38 41.577H1688.7V46.5H1687.38ZM1688.7 40.317H1692.35C1692.45 40.317 1692.58 40.311 1692.72 40.299C1692.87 40.287 1693.01 40.266 1693.15 40.236C1693.59 40.14 1693.95 39.957 1694.24 39.687C1694.52 39.417 1694.74 39.096 1694.87 38.724C1695.02 38.352 1695.09 37.965 1695.09 37.563C1695.09 37.161 1695.02 36.774 1694.87 36.402C1694.74 36.024 1694.52 35.7 1694.24 35.43C1693.95 35.16 1693.59 34.977 1693.15 34.881C1693.01 34.851 1692.87 34.833 1692.72 34.827C1692.58 34.815 1692.45 34.809 1692.35 34.809H1688.7V40.317ZM1698.24 46.5V33.54H1699.56V39.381H1706.73V33.54H1708.04V46.5H1706.73V40.65H1699.56V46.5H1698.24ZM1713.65 46.5V41.073L1709.3 33.54H1710.83L1714.32 39.561L1717.78 33.54H1719.31L1714.98 41.073V46.5H1713.65Z" fill="#D7D0FB"/>
<g clip-path="url(#clip7_83_2078)">
<mask id="mask6_83_2078" style="mask-type:luminance" maskUnits="userSpaceOnUse" x="1740" y="20" width="40" height="40">
<path d="M1780 20H1740V60H1780V20Z" fill="white"/>
</mask>
<g mask="url(#mask6_83_2078)">
<path fill-rule="evenodd" clip-rule="evenodd" d="M1777.79 40C1778.55 40 1779.3 39.8972 1780 39.7047C1779.44 39.5865 1778.86 39.5244 1778.26 39.5244H1768.37C1766.74 39.5244 1765.21 39.0562 1763.92 38.2467C1764.21 36.5979 1764.98 35.0173 1766.26 33.7446L1772.58 27.4219C1773.12 26.8805 1773.57 26.2834 1773.93 25.649C1773.45 25.9616 1773 26.3283 1772.58 26.7493L1765.58 33.7446C1764.43 34.9 1763.02 35.647 1761.53 35.9857C1760.57 34.6207 1760 32.9534 1760 31.1535V22.2119C1760 21.4462 1759.9 20.7046 1759.7 20C1759.59 20.5601 1759.52 21.1409 1759.52 21.7362V31.6291C1759.52 33.2631 1759.06 34.7878 1758.25 36.0762C1756.6 35.7945 1755.02 35.0173 1753.74 33.7446L1747.42 27.4219C1746.88 26.8805 1746.28 26.4287 1745.65 26.0667C1745.96 26.5463 1746.33 27.0009 1746.75 27.4219L1753.74 34.4172C1754.9 35.5726 1755.65 36.9818 1755.99 38.4653C1754.62 39.4319 1752.95 40 1751.15 40H1742.21C1741.45 40 1740.7 40.1028 1740 40.2954C1740.56 40.4134 1741.14 40.4756 1741.74 40.4756H1751.63C1753.26 40.4756 1754.79 40.9438 1756.08 41.7534C1755.79 43.402 1755.02 44.9826 1753.74 46.2554L1747.42 52.5782C1746.88 53.1196 1746.43 53.7166 1746.07 54.351C1746.55 54.0384 1747 53.6716 1747.42 53.2508L1754.42 46.2554C1755.57 45.1 1756.98 44.353 1758.47 44.0142C1759.43 45.3794 1760 47.0466 1760 48.8466V57.7882C1760 58.5538 1760.1 59.2954 1760.3 60C1760.41 59.4398 1760.48 58.859 1760.48 58.2638V48.3708C1760.48 46.7368 1760.94 45.2122 1761.75 43.9238C1763.4 44.2054 1764.98 44.9826 1766.26 46.2554L1772.58 52.5782C1773.12 53.1196 1773.72 53.5712 1774.35 53.9334C1774.04 53.4536 1773.67 52.999 1773.25 52.5782L1766.26 45.5828C1765.1 44.4274 1764.35 43.0182 1764.01 41.5348C1765.38 40.568 1767.05 40 1768.85 40H1777.79Z" fill="#AFA1F7"/>
</g>
</g>
<path d="M1791.26 46.5V33.54H1796.26C1796.39 33.54 1796.53 33.546 1796.69 33.558C1796.85 33.564 1797.01 33.582 1797.17 33.612C1797.85 33.714 1798.42 33.951 1798.89 34.323C1799.37 34.689 1799.72 35.151 1799.96 35.709C1800.21 36.267 1800.33 36.885 1800.33 37.563C1800.33 38.235 1800.21 38.85 1799.96 39.408C1799.72 39.966 1799.36 40.431 1798.88 40.803C1798.42 41.169 1797.85 41.403 1797.17 41.505C1797.01 41.529 1796.85 41.547 1796.69 41.559C1796.53 41.571 1796.39 41.577 1796.26 41.577H1792.58V46.5H1791.26ZM1792.58 40.317H1796.23C1796.34 40.317 1796.46 40.311 1796.61 40.299C1796.75 40.287 1796.89 40.266 1797.03 40.236C1797.47 40.14 1797.84 39.957 1798.12 39.687C1798.41 39.417 1798.62 39.096 1798.76 38.724C1798.9 38.352 1798.97 37.965 1798.97 37.563C1798.97 37.161 1798.9 36.774 1798.76 36.402C1798.62 36.024 1798.41 35.7 1798.12 35.43C1797.84 35.16 1797.47 34.977 1797.03 34.881C1796.89 34.851 1796.75 34.833 1796.61 34.827C1796.46 34.815 1796.34 34.809 1796.23 34.809H1792.58V40.317ZM1807.37 46.77C1806.08 46.77 1804.99 46.485 1804.1 45.915C1803.22 45.339 1802.54 44.544 1802.09 43.53C1801.63 42.516 1801.4 41.346 1801.4 40.02C1801.4 38.694 1801.63 37.524 1802.09 36.51C1802.54 35.496 1803.22 34.704 1804.1 34.134C1804.99 33.558 1806.08 33.27 1807.37 33.27C1808.67 33.27 1809.76 33.558 1810.64 34.134C1811.53 34.704 1812.2 35.496 1812.65 36.51C1813.12 37.524 1813.35 38.694 1813.35 40.02C1813.35 41.346 1813.12 42.516 1812.65 43.53C1812.2 44.544 1811.53 45.339 1810.64 45.915C1809.76 46.485 1808.67 46.77 1807.37 46.77ZM1807.37 45.501C1808.38 45.501 1809.23 45.27 1809.91 44.808C1810.59 44.346 1811.09 43.704 1811.43 42.882C1811.77 42.054 1811.94 41.1 1811.94 40.02C1811.94 38.94 1811.77 37.989 1811.43 37.167C1811.09 36.345 1810.59 35.703 1809.91 35.241C1809.23 34.779 1808.38 34.545 1807.37 34.539C1806.36 34.539 1805.51 34.77 1804.84 35.232C1804.17 35.694 1803.66 36.339 1803.32 37.167C1802.98 37.989 1802.81 38.94 1802.81 40.02C1802.8 41.1 1802.97 42.051 1803.3 42.873C1803.64 43.689 1804.15 44.331 1804.83 44.799C1805.51 45.261 1806.36 45.495 1807.37 45.501ZM1815.15 46.5V33.54H1820.15C1820.28 33.54 1820.42 33.546 1820.58 33.558C1820.74 33.564 1820.9 33.582 1821.06 33.612C1821.74 33.714 1822.31 33.951 1822.78 34.323C1823.25 34.689 1823.61 35.151 1823.85 35.709C1824.1 36.267 1824.22 36.885 1824.22 37.563C1824.22 38.541 1823.96 39.39 1823.45 40.11C1822.93 40.83 1822.19 41.283 1821.23 41.469L1820.77 41.577H1816.47V46.5H1815.15ZM1823 46.5L1820.44 41.226L1821.71 40.74L1824.52 46.5H1823ZM1816.47 40.317H1820.12C1820.22 40.317 1820.35 40.311 1820.49 40.299C1820.64 40.287 1820.78 40.266 1820.92 40.236C1821.36 40.14 1821.72 39.957 1822.01 39.687C1822.29 39.417 1822.51 39.096 1822.65 38.724C1822.79 38.352 1822.86 37.965 1822.86 37.563C1822.86 37.161 1822.79 36.774 1822.65 36.402C1822.51 36.024 1822.29 35.7 1822.01 35.43C1821.72 35.16 1821.36 34.977 1820.92 34.881C1820.78 34.851 1820.64 34.833 1820.49 34.827C1820.35 34.815 1820.22 34.809 1820.12 34.809H1816.47V40.317ZM1829.95 46.5V34.809H1825.42V33.54H1835.8V34.809H1831.27V46.5H1829.95ZM1837.24 46.5V33.54H1842.25C1842.37 33.54 1842.52 33.546 1842.67 33.558C1842.83 33.564 1843 33.582 1843.16 33.612C1843.84 33.714 1844.41 33.951 1844.88 34.323C1845.35 34.689 1845.71 35.151 1845.95 35.709C1846.19 36.267 1846.32 36.885 1846.32 37.563C1846.32 38.541 1846.06 39.39 1845.54 40.11C1845.03 40.83 1844.29 41.283 1843.33 41.469L1842.87 41.577H1838.57V46.5H1837.24ZM1845.09 46.5L1842.54 41.226L1843.81 40.74L1846.61 46.5H1845.09ZM1838.57 40.317H1842.21C1842.32 40.317 1842.45 40.311 1842.59 40.299C1842.73 40.287 1842.88 40.266 1843.01 40.236C1843.46 40.14 1843.82 39.957 1844.1 39.687C1844.39 39.417 1844.6 39.096 1844.74 38.724C1844.89 38.352 1844.96 37.965 1844.96 37.563C1844.96 37.161 1844.89 36.774 1844.74 36.402C1844.6 36.024 1844.39 35.7 1844.1 35.43C1843.82 35.16 1843.46 34.977 1843.01 34.881C1842.88 34.851 1842.73 34.833 1842.59 34.827C1842.45 34.815 1842.32 34.809 1842.21 34.809H1838.57V40.317ZM1847.7 46.5L1852.16 33.54H1853.92L1858.38 46.5H1857.01L1852.77 34.278H1853.29L1849.08 46.5H1847.7ZM1849.69 43.359V42.117H1856.38V43.359H1849.69ZM1860.19 46.5V33.54H1861.51V46.5H1860.19ZM1867.66 46.5V34.809H1863.13V33.54H1873.51V34.809H1868.98V46.5H1867.66ZM1881.61 46.5V33.54H1886.62C1886.74 33.54 1886.88 33.546 1887.04 33.558C1887.2 33.564 1887.36 33.582 1887.52 33.612C1888.2 33.714 1888.78 33.951 1889.24 34.323C1889.72 34.689 1890.07 35.151 1890.31 35.709C1890.56 36.267 1890.68 36.885 1890.68 37.563C1890.68 38.235 1890.56 38.85 1890.31 39.408C1890.07 39.966 1889.71 40.431 1889.23 40.803C1888.77 41.169 1888.2 41.403 1887.52 41.505C1887.36 41.529 1887.2 41.547 1887.04 41.559C1886.88 41.571 1886.74 41.577 1886.62 41.577H1882.93V46.5H1881.61ZM1882.93 40.317H1886.58C1886.69 40.317 1886.81 40.311 1886.96 40.299C1887.1 40.287 1887.24 40.266 1887.38 40.236C1887.82 40.14 1888.19 39.957 1888.47 39.687C1888.76 39.417 1888.97 39.096 1889.11 38.724C1889.25 38.352 1889.32 37.965 1889.32 37.563C1889.32 37.161 1889.25 36.774 1889.11 36.402C1888.97 36.024 1888.76 35.7 1888.47 35.43C1888.19 35.16 1887.82 34.977 1887.38 34.881C1887.24 34.851 1887.1 34.833 1886.96 34.827C1886.81 34.815 1886.69 34.809 1886.58 34.809H1882.93V40.317ZM1892.47 46.5V33.54H1893.8V39.381H1900.96V33.54H1902.28V46.5H1900.96V40.65H1893.8V46.5H1892.47ZM1910.04 46.77C1908.75 46.77 1907.67 46.485 1906.78 45.915C1905.89 45.339 1905.22 44.544 1904.76 43.53C1904.31 42.516 1904.08 41.346 1904.08 40.02C1904.08 38.694 1904.31 37.524 1904.76 36.51C1905.22 35.496 1905.89 34.704 1906.78 34.134C1907.67 33.558 1908.75 33.27 1910.04 33.27C1911.34 33.27 1912.43 33.558 1913.31 34.134C1914.2 34.704 1914.87 35.496 1915.33 36.51C1915.79 37.524 1916.02 38.694 1916.02 40.02C1916.02 41.346 1915.79 42.516 1915.33 43.53C1914.87 44.544 1914.2 45.339 1913.31 45.915C1912.43 46.485 1911.34 46.77 1910.04 46.77ZM1910.04 45.501C1911.06 45.501 1911.9 45.27 1912.58 44.808C1913.26 44.346 1913.77 43.704 1914.1 42.882C1914.45 42.054 1914.62 41.1 1914.62 40.02C1914.62 38.94 1914.45 37.989 1914.1 37.167C1913.77 36.345 1913.26 35.703 1912.58 35.241C1911.9 34.779 1911.06 34.545 1910.04 34.539C1909.03 34.539 1908.19 34.77 1907.52 35.232C1906.84 35.694 1906.34 36.339 1905.99 37.167C1905.66 37.989 1905.49 38.94 1905.48 40.02C1905.48 41.1 1905.64 42.051 1905.98 42.873C1906.32 43.689 1906.83 44.331 1907.51 44.799C1908.18 45.261 1909.03 45.495 1910.04 45.501ZM1920.92 46.5V34.809H1916.39V33.54H1926.77V34.809H1922.24V46.5H1920.92ZM1933.46 46.77C1932.17 46.77 1931.08 46.485 1930.19 45.915C1929.3 45.339 1928.63 44.544 1928.18 43.53C1927.72 42.516 1927.49 41.346 1927.49 40.02C1927.49 38.694 1927.72 37.524 1928.18 36.51C1928.63 35.496 1929.3 34.704 1930.19 34.134C1931.08 33.558 1932.17 33.27 1933.46 33.27C1934.75 33.27 1935.84 33.558 1936.73 34.134C1937.61 34.704 1938.29 35.496 1938.74 36.51C1939.2 37.524 1939.43 38.694 1939.43 40.02C1939.43 41.346 1939.2 42.516 1938.74 43.53C1938.29 44.544 1937.61 45.339 1936.73 45.915C1935.84 46.485 1934.75 46.77 1933.46 46.77ZM1933.46 45.501C1934.47 45.501 1935.32 45.27 1936 44.808C1936.67 44.346 1937.18 43.704 1937.52 42.882C1937.86 42.054 1938.03 41.1 1938.03 40.02C1938.03 38.94 1937.86 37.989 1937.52 37.167C1937.18 36.345 1936.67 35.703 1936 35.241C1935.32 34.779 1934.47 34.545 1933.46 34.539C1932.44 34.539 1931.6 34.77 1930.93 35.232C1930.26 35.694 1929.75 36.339 1929.41 37.167C1929.07 37.989 1928.9 38.94 1928.9 40.02C1928.89 41.1 1929.05 42.051 1929.39 42.873C1929.73 43.689 1930.24 44.331 1930.92 44.799C1931.6 45.261 1932.44 45.495 1933.46 45.501ZM1946.43 46.77C1945.52 46.77 1944.7 46.611 1943.96 46.293C1943.23 45.975 1942.61 45.522 1942.09 44.934C1941.58 44.346 1941.19 43.638 1940.92 42.81C1940.65 41.976 1940.52 41.046 1940.52 40.02C1940.52 38.664 1940.75 37.482 1941.22 36.474C1941.69 35.46 1942.37 34.674 1943.25 34.116C1944.13 33.558 1945.19 33.279 1946.43 33.279C1947.81 33.279 1948.93 33.603 1949.8 34.251C1950.67 34.893 1951.27 35.757 1951.61 36.843L1950.28 37.167C1950 36.375 1949.53 35.742 1948.89 35.268C1948.24 34.794 1947.44 34.557 1946.48 34.557C1945.47 34.551 1944.63 34.779 1943.95 35.241C1943.28 35.697 1942.78 36.339 1942.43 37.167C1942.1 37.989 1941.93 38.94 1941.92 40.02C1941.91 41.1 1942.08 42.051 1942.42 42.873C1942.76 43.689 1943.27 44.331 1943.95 44.799C1944.62 45.261 1945.47 45.495 1946.48 45.501C1947.41 45.501 1948.18 45.321 1948.79 44.961C1949.39 44.601 1949.85 44.085 1950.16 43.413C1950.48 42.741 1950.66 41.946 1950.7 41.028H1947.72V39.894H1952.09C1952.11 40.032 1952.12 40.179 1952.12 40.335C1952.12 40.485 1952.13 40.593 1952.13 40.659C1952.13 41.829 1951.92 42.876 1951.5 43.8C1951.08 44.718 1950.44 45.444 1949.6 45.978C1948.76 46.506 1947.7 46.77 1946.43 46.77ZM1953.93 46.5V33.54H1958.93C1959.06 33.54 1959.2 33.546 1959.35 33.558C1959.52 33.564 1959.68 33.582 1959.84 33.612C1960.52 33.714 1961.09 33.951 1961.56 34.323C1962.03 34.689 1962.39 35.151 1962.63 35.709C1962.88 36.267 1963 36.885 1963 37.563C1963 38.541 1962.74 39.39 1962.23 40.11C1961.71 40.83 1960.97 41.283 1960.01 41.469L1959.55 41.577H1955.25V46.5H1953.93ZM1961.78 46.5L1959.22 41.226L1960.49 40.74L1963.3 46.5H1961.78ZM1955.25 40.317H1958.9C1959 40.317 1959.13 40.311 1959.27 40.299C1959.42 40.287 1959.56 40.266 1959.7 40.236C1960.14 40.14 1960.5 39.957 1960.79 39.687C1961.07 39.417 1961.29 39.096 1961.42 38.724C1961.57 38.352 1961.64 37.965 1961.64 37.563C1961.64 37.161 1961.57 36.774 1961.42 36.402C1961.29 36.024 1961.07 35.7 1960.79 35.43C1960.5 35.16 1960.14 34.977 1959.7 34.881C1959.56 34.851 1959.42 34.833 1959.27 34.827C1959.13 34.815 1959 34.809 1958.9 34.809H1955.25V40.317ZM1964.38 46.5L1968.85 33.54H1970.6L1975.07 46.5H1973.69L1969.45 34.278H1969.97L1965.76 46.5H1964.38ZM1966.37 43.359V42.117H1973.07V43.359H1966.37ZM1976.69 46.5V33.54H1981.7C1981.82 33.54 1981.96 33.546 1982.12 33.558C1982.28 33.564 1982.44 33.582 1982.6 33.612C1983.28 33.714 1983.86 33.951 1984.32 34.323C1984.8 34.689 1985.15 35.151 1985.39 35.709C1985.64 36.267 1985.76 36.885 1985.76 37.563C1985.76 38.235 1985.64 38.85 1985.39 39.408C1985.15 39.966 1984.79 40.431 1984.31 40.803C1983.85 41.169 1983.28 41.403 1982.6 41.505C1982.44 41.529 1982.28 41.547 1982.12 41.559C1981.96 41.571 1981.82 41.577 1981.7 41.577H1978.01V46.5H1976.69ZM1978.01 40.317H1981.66C1981.77 40.317 1981.89 40.311 1982.04 40.299C1982.18 40.287 1982.32 40.266 1982.46 40.236C1982.9 40.14 1983.27 39.957 1983.55 39.687C1983.84 39.417 1984.05 39.096 1984.19 38.724C1984.33 38.352 1984.4 37.965 1984.4 37.563C1984.4 37.161 1984.33 36.774 1984.19 36.402C1984.05 36.024 1983.84 35.7 1983.55 35.43C1983.27 35.16 1982.9 34.977 1982.46 34.881C1982.32 34.851 1982.18 34.833 1982.04 34.827C1981.89 34.815 1981.77 34.809 1981.66 34.809H1978.01V40.317ZM1987.55 46.5V33.54H1988.88V39.381H1996.04V33.54H1997.36V46.5H1996.04V40.65H1988.88V46.5H1987.55ZM2002.96 46.5V41.073L1998.62 33.54H2000.15L2003.63 39.561L2007.1 33.54H2008.63L2004.3 41.073V46.5H2002.96Z" fill="#D7D0FB"/>
</g>
<path d="M0 1H1920V-1H0V1ZM1920 79H0V81H1920V79Z" fill="#1C1C21" mask="url(#path-1-inside-1_83_2078)"/>
<defs>
<clipPath id="clip0_83_2078">
<path d="M0 0H1920V80H0V0Z" fill="white"/>
</clipPath>
<clipPath id="clip1_83_2078">
<rect width="40" height="40" fill="white" transform="translate(20 20)"/>
</clipPath>
<clipPath id="clip2_83_2078">
<rect width="40" height="40" fill="white" transform="translate(276 20)"/>
</clipPath>
<clipPath id="clip3_83_2078">
<rect width="40" height="40" fill="white" transform="translate(578 20)"/>
</clipPath>
<clipPath id="clip4_83_2078">
<rect width="40" height="40" fill="white" transform="translate(863 20)"/>
</clipPath>
<clipPath id="clip5_83_2078">
<rect width="40" height="40" fill="white" transform="translate(1146 20)"/>
</clipPath>
<clipPath id="clip6_83_2078">
<rect width="40" height="40" fill="white" transform="translate(1450 20)"/>
</clipPath>
<clipPath id="clip7_83_2078">
<rect width="40" height="40" fill="white" transform="translate(1740 20)"/>
</clipPath>
</defs>
</svg>
